<?xml version="1.0" standalone="no"?>
<!DOCTYPE svg PUBLIC "-//W3C//DTD SVG 1.1//EN" "http://www.w3.org/Graphics/SVG/1.1/DTD/svg11.dtd" >
<svg xmlns="http://www.w3.org/2000/svg">
  <defs>
    <font id="qcloud_qzz" horiz-adv-x="1024">
      <font-face
        font-family="qcloud_qzz"
        units-per-em="1024"
        ascent="1024"
        descent="0"
      />
      <missing-glyph horiz-adv-x="0"/>
        <glyph
          glyph-name="qunar-caret_up"
          unicode="&#xf029;"
          horiz-adv-x="1024" d=" M256,448 L386,448 L386,450 L386,448 L768,448 L512,704" />
        <glyph
          glyph-name="qunar-caret_down"
          unicode="&#xf033;"
          horiz-adv-x="1024" d=" M512,320 L768,576 L386,576 L386,574 L384,576 L256,576" />
        <glyph
          glyph-name="qunar-trash_o"
          unicode="&#xf05b;"
          horiz-adv-x="1024" d=" M368,192 Q361,192 356.5,196.5 Q352,201 352,208 L352,672 Q352,679 356.5,683.5 Q361,688 368,688 Q375,688 379.5,683.5 Q384,679 384,672 L384,208 Q384,201 379.5,196.5 Q375,192 368,192 M528,208 L528,672 Q528,679 523.5,683.5 Q519,688 512,688 Q505,688 500.5,683.5 Q496,679 496,672 L496,208 Q496,201 500.5,196.5 Q505,192 512,192 Q519,192 523.5,196.5 Q528,201 528,208 M792,736 Q782,736 775,729 Q768,722 768,712 L768,184 Q768,167 756.5,155.5 Q745,144 728,144 L296,144 Q279,144 267.5,155.5 Q256,167 256,184 L256,712 Q256,722 249,729 Q242,736 232,736 Q222,736 215,729 Q208,722 208,712 L208,184 Q209,147 234,122 Q259,97 296,96 L728,96 Q765,97 790,122 Q815,147 816,184 L816,712 Q816,722 809,729 Q802,736 792,736 M896,792 Q896,782 889,775 Q882,768 872,768 L152,768 Q142,768 135,775 Q128,782 128,792 Q128,802 135,809 Q142,816 152,816 L384,816 L384,872 Q385,896 400.5,911.5 Q416,927 440,928 L584,928 Q608,927 623.5,911.5 Q639,896 640,872 L640,816 L872,816 Q882,816 889,809 Q896,802 896,792 M592,872 Q591,879 584,880 L440,880 Q433,879 432,872 L432,816 L592,816 M672,208 L672,672 Q672,679 667.5,683.5 Q663,688 656,688 Q649,688 644.5,683.5 Q640,679 640,672 L640,208 Q640,201 644.5,196.5 Q649,192 656,192 Q663,192 667.5,196.5 Q672,201 672,208" />
        <glyph
          glyph-name="qunar-more"
          unicode="&#xf0cd;"
          horiz-adv-x="1024" d=" M287,705 L95,705 Q81,705 72,714 Q63,723 63,737 L63,865 Q63,879 72,888 Q81,897 95,897 L287,897 Q301,897 310,888 Q319,879 319,865 L319,737 Q319,723 310,714 Q301,705 287,705 M608,705 L416,705 Q402,705 393,714 Q384,723 384,737 L384,865 Q384,879 393,888 Q402,897 416,897 L608,897 Q622,897 631,888 Q640,879 640,865 L640,737 Q640,723 631,714 Q622,705 608,705 M929,705 L737,705 Q723,705 714,714 Q705,723 705,737 L705,865 Q705,879 714,888 Q723,897 737,897 L929,897 Q943,897 952,888 Q961,879 961,865 L961,737 Q961,723 952,714 Q943,705 929,705 M287,448 L95,448 Q81,448 72,457 Q63,466 63,480 L63,608 Q63,622 72,631 Q81,640 95,640 L287,640 Q301,640 310,631 Q319,622 319,608 L319,480 Q319,466 310,457 Q301,448 287,448 M608,448 L416,448 Q402,448 393,457 Q384,466 384,480 L384,608 Q384,622 393,631 Q402,640 416,640 L608,640 Q622,640 631,631 Q640,622 640,608 L640,480 Q640,466 631,457 Q622,448 608,448 M929,448 L737,448 Q723,448 714,457 Q705,466 705,480 L705,608 Q705,622 714,631 Q723,640 737,640 L929,640 Q943,640 952,631 Q961,622 961,608 L961,480 Q961,466 952,457 Q943,448 929,448 M287,191 L95,191 Q81,191 72,200 Q63,209 63,223 L63,351 Q63,365 72,374 Q81,383 95,383 L287,383 Q301,383 310,374 Q319,365 319,351 L319,223 Q319,209 310,200 Q301,191 287,191 M608,191 L416,191 Q402,191 393,200 Q384,209 384,223 L384,351 Q384,365 393,374 Q402,383 416,383 L608,383 Q622,383 631,374 Q640,365 640,351 L640,223 Q640,209 631,200 Q622,191 608,191 M929,191 L737,191 Q723,191 714,200 Q705,209 705,223 L705,351 Q705,365 714,374 Q723,383 737,383 L929,383 Q943,383 952,374 Q961,365 961,351 L961,223 Q961,209 952,200 Q943,191 929,191" />
        <glyph
          glyph-name="qua-tickin-f"
          unicode="&#xf101;"
          horiz-adv-x="1024" d=" M1014,896 Q1004,906 992,906 Q980,906 970,896 L323,246 L54,515 Q44,525 32,525 Q20,525 10,515 Q0,505 0,492.5 Q0,480 10,470 L301,179 Q306,174 312,172 Q318,170 323,170 Q328,170 334.5,172 Q341,174 346,179 L1014,848 Q1024,858 1024,872 Q1024,886 1014,896" />
        <glyph
          glyph-name="qua-cancel-f"
          unicode="&#xf102;"
          horiz-adv-x="1024" d=" M557,512 L1014,970 Q1024,980 1024,992 Q1024,1004 1014,1014 Q1004,1024 992,1024 Q980,1024 970,1014 L512,557 L54,1014 Q44,1024 32,1024 Q20,1024 10,1014 Q0,1004 0,992 Q0,980 10,970 L467,512 L10,54 Q0,44 0,32 Q0,20 9,10 Q18,0 32,0 Q46,0 54,10 L512,467 L970,10 Q975,5 981,2.5 Q987,0 992,0 Q997,0 1003,2.5 Q1009,5 1014,10 Q1024,20 1024,32 Q1024,44 1014,54" />
        <glyph
          glyph-name="qua-shijian-f"
          unicode="&#xf106;"
          horiz-adv-x="1024" d=" M512,1024 Q295,1018 150.5,873.5 Q6,729 0,512 Q6,295 150.5,150.5 Q295,6 512,0 Q729,6 873.5,150.5 Q1018,295 1024,512 Q1018,729 873.5,873.5 Q729,1018 512,1024 M512,64 Q322,69 195.5,195.5 Q69,322 64,512 Q69,702 195.5,828.5 Q322,955 512,960 Q702,955 828.5,828.5 Q955,702 960,512 Q955,322 828.5,195.5 Q702,69 512,64 M768,480 L512,480 L512,832 Q512,847 503.5,855.5 Q495,864 480,864 Q465,864 456.5,855.5 Q448,847 448,832 L448,448 Q448,433 456.5,424.5 Q465,416 480,416 Q480,416 480,416 Q480,416 480,416 L768,416 Q783,416 791.5,424.5 Q800,433 800,448 Q800,463 791.5,471.5 Q783,480 768,480" />
        <glyph
          glyph-name="ops-yingyongshu-f"
          unicode="&#xf11d;"
          horiz-adv-x="1024" d=" M264,416 L120,416 Q96,415 80.5,399.5 Q65,384 64,360 L64,248 Q65,224 80.5,208.5 Q96,193 120,192 L264,192 Q288,193 303.5,208.5 Q319,224 320,248 L320,360 Q319,384 303.5,399.5 Q288,415 264,416 M288,248 Q288,238 281,231 Q274,224 264,224 L120,224 Q110,224 103,231 Q96,238 96,248 L96,360 Q96,370 103,377 Q110,384 120,384 L264,384 Q274,384 281,377 Q288,370 288,360 M584,416 L440,416 Q416,415 400.5,399.5 Q385,384 384,360 L384,248 Q385,224 400.5,208.5 Q416,193 440,192 L584,192 Q608,193 623.5,208.5 Q639,224 640,248 L640,360 Q639,384 623.5,399.5 Q608,415 584,416 M608,248 Q608,238 601,231 Q594,224 584,224 L440,224 Q430,224 423,231 Q416,238 416,248 L416,360 Q416,370 423,377 Q430,384 440,384 L584,384 Q594,384 601,377 Q608,370 608,360 M408,640 L616,640 Q640,641 655.5,656.5 Q671,672 672,696 L672,840 Q671,864 655.5,879.5 Q640,895 616,896 L408,896 Q384,895 368.5,879.5 Q353,864 352,840 L352,696 Q353,672 368.5,656.5 Q384,641 408,640 M384,840 Q384,850 391,857 Q398,864 408,864 L616,864 Q626,864 633,857 Q640,850 640,840 L640,832 L384,832 M384,800 L640,800 L640,696 Q640,686 633,679 Q626,672 616,672 L408,672 Q398,672 391,679 Q384,686 384,696 M904,416 L760,416 Q736,415 720.5,399.5 Q705,384 704,360 L704,248 Q705,224 720.5,208.5 Q736,193 760,192 L904,192 Q928,193 943.5,208.5 Q959,224 960,248 L960,360 Q959,384 943.5,399.5 Q928,415 904,416 M928,248 Q928,238 921,231 Q914,224 904,224 L760,224 Q750,224 743,231 Q736,238 736,248 L736,360 Q736,370 743,377 Q750,384 760,384 L904,384 Q914,384 921,377 Q928,370 928,360 M208,448 Q215,448 219.5,452.5 Q224,457 224,464 L224,544 L496,544 L496,464 Q496,457 500.5,452.5 Q505,448 512,448 Q519,448 523.5,452.5 Q528,457 528,464 L528,544 L800,544 L800,464 Q800,457 804.5,452.5 Q809,448 816,448 Q823,448 827.5,452.5 Q832,457 832,464 L832,560 Q832,567 827.5,571.5 Q823,576 816,576 L528,576 L528,592 Q528,599 523.5,603.5 Q519,608 512,608 Q505,608 500.5,603.5 Q496,599 496,592 L496,576 L208,576 Q201,576 196.5,571.5 Q192,567 192,560 L192,464 Q192,457 196.5,452.5 Q201,448 208,448" />
        <glyph
          glyph-name="ops-jiqiziyuanshenpi-f"
          unicode="&#xf122;"
          horiz-adv-x="1024" d=" M225,672 L799,672 Q827,673 845,691 Q863,709 864,737 L864,799 Q863,827 845,845 Q827,863 799,864 L225,864 Q197,863 179,845 Q161,827 160,799 L160,737 Q161,709 179,691 Q197,673 225,672 M192,799 Q192,813 201.5,822.5 Q211,832 225,832 L799,832 Q813,832 822.5,822.5 Q832,813 832,799 L832,737 Q832,723 822.5,713.5 Q813,704 799,704 L225,704 Q211,704 201.5,713.5 Q192,723 192,737 M560,480 L225,480 Q211,480 201.5,489.5 Q192,499 192,513 L192,575 Q192,589 201.5,598.5 Q211,608 225,608 L799,608 Q813,608 822.5,598.5 Q832,589 832,575 L832,544 Q832,537 836.5,532.5 Q841,528 848,528 Q855,528 859.5,532.5 Q864,537 864,544 L864,575 Q863,603 845,621 Q827,639 799,640 L225,640 Q197,639 179,621 Q161,603 160,575 L160,513 Q161,485 179,467 Q197,449 225,448 L560,448 Q567,448 571.5,452.5 Q576,457 576,464 Q576,471 571.5,475.5 Q567,480 560,480 M544,400 Q544,407 539.5,411.5 Q535,416 528,416 L225,416 Q197,415 179,397 Q161,379 160,351 L160,289 Q161,261 179,243 Q197,225 225,224 L528,224 Q535,224 539.5,228.5 Q544,233 544,240 Q544,247 539.5,251.5 Q535,256 528,256 L225,256 Q211,256 201.5,265.5 Q192,275 192,289 L192,351 Q192,365 201.5,374.5 Q211,384 225,384 L528,384 Q535,384 539.5,388.5 Q544,393 544,400 M736,784 Q736,777 740.5,772.5 Q745,768 752,768 Q759,768 763.5,772.5 Q768,777 768,784 Q768,791 763.5,795.5 Q759,800 752,800 Q745,800 740.5,795.5 Q736,791 736,784 M736,560 Q736,553 740.5,548.5 Q745,544 752,544 Q759,544 763.5,548.5 Q768,553 768,560 Q768,567 763.5,571.5 Q759,576 752,576 Q745,576 740.5,571.5 Q736,567 736,560 M272,736 Q279,736 283.5,740.5 Q288,745 288,752 L288,784 Q288,791 283.5,795.5 Q279,800 272,800 Q265,800 260.5,795.5 Q256,791 256,784 L256,752 Q256,745 260.5,740.5 Q265,736 272,736 M336,736 Q343,736 347.5,740.5 Q352,745 352,752 L352,784 Q352,791 347.5,795.5 Q343,800 336,800 Q329,800 324.5,795.5 Q320,791 320,784 L320,752 Q320,745 324.5,740.5 Q329,736 336,736 M400,736 Q407,736 411.5,740.5 Q416,745 416,752 L416,784 Q416,791 411.5,795.5 Q407,800 400,800 Q393,800 388.5,795.5 Q384,791 384,784 L384,752 Q384,745 388.5,740.5 Q393,736 400,736 M256,560 L256,528 Q256,521 260.5,516.5 Q265,512 272,512 Q279,512 283.5,516.5 Q288,521 288,528 L288,560 Q288,567 283.5,571.5 Q279,576 272,576 Q265,576 260.5,571.5 Q256,567 256,560 M320,560 L320,528 Q320,521 324.5,516.5 Q329,512 336,512 Q343,512 347.5,516.5 Q352,521 352,528 L352,560 Q352,567 347.5,571.5 Q343,576 336,576 Q329,576 324.5,571.5 Q320,567 320,560 M384,560 L384,528 Q384,521 388.5,516.5 Q393,512 400,512 Q407,512 411.5,516.5 Q416,521 416,528 L416,560 Q416,567 411.5,571.5 Q407,576 400,576 Q393,576 388.5,571.5 Q384,567 384,560 M256,336 L256,304 Q256,297 260.5,292.5 Q265,288 272,288 Q279,288 283.5,292.5 Q288,297 288,304 L288,336 Q288,343 283.5,347.5 Q279,352 272,352 Q265,352 260.5,347.5 Q256,343 256,336 M320,336 L320,304 Q320,297 324.5,292.5 Q329,288 336,288 Q343,288 347.5,292.5 Q352,297 352,304 L352,336 Q352,343 347.5,347.5 Q343,352 336,352 Q329,352 324.5,347.5 Q320,343 320,336 M384,336 L384,304 Q384,297 388.5,292.5 Q393,288 400,288 Q407,288 411.5,292.5 Q416,297 416,304 L416,336 Q416,343 411.5,347.5 Q407,352 400,352 Q393,352 388.5,347.5 Q384,343 384,336 M768,512 Q687,510 632.5,455.5 Q578,401 576,320 Q578,239 632.5,184.5 Q687,130 768,128 Q849,130 903.5,184.5 Q958,239 960,320 Q958,401 903.5,455.5 Q849,510 768,512 M768,160 Q700,162 655,207 Q610,252 608,320 Q610,388 655,433 Q700,478 768,480 Q836,478 881,433 Q926,388 928,320 Q926,252 881,207 Q836,162 768,160 M837,382 L746,290 L697,339 Q692,343 685.5,343 Q679,343 674.5,338.5 Q670,334 670,327.5 Q670,321 674,316 L734,256 Q739,252 745.5,252 Q752,252 757,256 L860,359 Q864,364 864,370.5 Q864,377 859.5,381.5 Q855,386 848.5,386 Q842,386 837,382" />
        <glyph
          glyph-name="mob-tesezhuti-f"
          unicode="&#xf145;"
          horiz-adv-x="1024" d=" M896,640 L896,504 Q896,494 889,487 Q882,480 872,480 L864,480 L864,160 Q863,133 845,115 Q827,97 800,96 L224,96 Q197,97 179,115 Q161,133 160,160 L160,480 L152,480 Q142,480 135,487 Q128,494 128,504 L128,640 Q129,667 147,685 Q165,703 192,704 L360,704 Q370,704 377,697 Q384,690 384,680 Q384,670 377,663 Q370,656 360,656 L192,656 Q185,656 180.5,651.5 Q176,647 176,640 L176,528 L360,528 Q370,528 377,521 Q384,514 384,504 Q384,494 377,487 Q370,480 360,480 L208,480 L208,160 Q208,153 212.5,148.5 Q217,144 224,144 L800,144 Q807,144 811.5,148.5 Q816,153 816,160 L816,480 L664,480 Q654,480 647,487 Q640,494 640,504 Q640,514 647,521 Q654,528 664,528 L848,528 L848,640 Q848,647 843.5,651.5 Q839,656 832,656 L664,656 Q654,656 647,663 Q640,670 640,680 Q640,690 647,697 Q654,704 664,704 L832,704 Q859,703 877,685 Q895,667 896,640 M544,752 L544,832 Q545,873 572,900 Q599,927 640,927 Q681,927 708,900 Q735,873 736,832 Q735,798 716,773 Q739,782 753.5,802 Q768,822 768,848 Q768,855 772.5,859.5 Q777,864 784,864 Q791,864 795.5,859.5 Q800,855 800,848 Q799,800 767.5,768.5 Q736,737 688,736 L560,736 Q553,736 548.5,740.5 Q544,745 544,752 M576,768 L640,768 Q667,769 685,787 Q703,805 703,832 Q703,859 685,877 Q667,895 640,895 Q613,895 595,877 Q577,859 576,832 M224,848 Q224,855 228.5,859.5 Q233,864 240,864 Q247,864 251.5,859.5 Q256,855 256,848 Q257,818 274.5,797 Q292,776 320,770 Q305,785 296.5,805 Q288,825 288,848 Q289,896 320.5,927.5 Q352,959 400,960 Q448,959 479.5,927.5 Q511,896 512,848 L512,752 Q512,745 507.5,740.5 Q503,736 496,736 L336,736 Q288,737 256.5,768.5 Q225,800 224,848 M400,768 L480,768 L480,848 Q479,882 456.5,904.5 Q434,927 400,927 Q366,927 343.5,904.5 Q321,882 321,848 Q321,814 343.5,791.5 Q366,769 400,768 M592,704 Q599,704 603.5,699.5 Q608,695 608,688 L608,304 Q608,294 599,290 Q596,288 591,288 Q586,288 582,292 L512,348 L442,292 Q434,286 425,290 Q416,294 416,304 L416,688 Q416,695 420.5,699.5 Q425,704 432,704 M576,672 L448,672 L448,337 L502,380 Q507,384 512,384 Q517,384 522,380 L576,337" />
        <glyph
          glyph-name="apt-likai-f"
          unicode="&#xf18f;"
          horiz-adv-x="1024" d=" M896,520 Q895,522 895,523 L893,526 Q891,530 887,534 L727,694 Q717,704 704.5,704 Q692,704 682.5,694 Q673,684 673,671.5 Q673,659 682,649 L771,560 L368,560 Q348,559 334.5,545.5 Q321,532 321,511.5 Q321,491 334.5,477.5 Q348,464 368,464 L772,464 L683,374 Q673,364 673,351.5 Q673,339 682.5,329 Q692,319 705,319 Q718,319 728,329 L887,489 Q895,497 897,507 L897,510 Q897,515 896,520 M715,255 Q704,255 696,249 L696,249 Q657,222 610.5,207 Q564,192 512,191 Q376,195 285.5,285.5 Q195,376 192,512 Q195,648 285.5,738.5 Q376,829 512,832 Q564,832 610.5,816.5 Q657,801 696,774 L696,774 Q704,768 715,768 Q729,768 738,777 Q747,786 747,800 Q746,817 734,826 L734,826 L733,826 Q686,860 630,878 Q574,896 512,896 Q349,892 240.5,783.5 Q132,675 128,512 Q132,348 240.5,239.5 Q349,131 512,127 Q574,127 629.5,145 Q685,163 732,196 Q746,205 747,223 Q747,237 738,246 Q729,255 715,255" />
        <glyph
          glyph-name="apt-wenhao-f"
          unicode="&#xf19e;"
          horiz-adv-x="1024" d=" M512,896 Q349,892 240.5,783.5 Q132,675 128,512 Q132,348 240.5,239.5 Q349,131 512,127 Q676,131 784.5,239.5 Q893,348 897,512 Q893,675 784.5,783.5 Q676,892 512,896 M512,191 Q376,195 285.5,285.5 Q195,376 192,512 Q195,648 285.5,738.5 Q376,829 512,832 Q648,829 738.5,738.5 Q829,648 833,512 Q829,376 738.5,285.5 Q648,195 512,191 M480,320 Q481,306 490,297 Q499,288 512.5,288 Q526,288 535,297 Q544,306 544,319.5 Q544,333 535,342 Q526,351 512.5,351 Q499,351 490,342 Q481,333 480,320 M512,736 Q454,734 416,696 Q378,658 376,600 L376,600 L376,600 Q377,586 386,577 Q395,568 408.5,568 Q422,568 431,577 Q440,586 440,600 L440,600 Q441,631 461.5,651 Q482,671 512.5,671.5 Q543,672 563.5,654 Q584,636 584,600 Q584,571 568,557 Q552,543 529,528 Q502,512 491,498.5 Q480,485 480,457 L480,432 Q481,418 490,409 Q499,400 512.5,400 Q526,400 535,409 Q544,418 545,432 L545,452 Q544,465 552,472 L577,496 Q593,508 619.5,528 Q646,548 648,600 Q647,666 608.5,701 Q570,736 512,736" />
        <glyph
          glyph-name="apt-tingzhi-f"
          unicode="&#xf1b1;"
          horiz-adv-x="1024" d=" M608,640 Q608,640 608,640 L416,640 Q402,639 393,630 Q384,621 384,608 L384,416 Q384,402 393,393 Q402,384 416,384 L608,384 Q621,384 630,393 Q639,402 640,416 L640,608 Q639,621 630,630 Q621,639 608,640 M512,896 Q348,892 239.5,783.5 Q131,675 127,512 Q131,348 239.5,239.5 Q348,131 512,127 Q675,131 783.5,239.5 Q892,348 896,512 Q892,675 783.5,783.5 Q675,892 512,896 M512,191 Q376,195 285.5,285.5 Q195,376 191,512 Q195,648 285.5,738.5 Q376,829 512,832 Q648,829 738.5,738.5 Q829,648 832,512 Q829,376 738.5,285.5 Q648,195 512,191" />
        <glyph
          glyph-name="apt-lajitong-f"
          unicode="&#xf1b8;"
          horiz-adv-x="1024" d=" M448,800 Q448,814 457,823 Q466,832 480,832 L544,832 Q557,832 566,823 Q575,814 576,800 L576,768 L640,768 L640,832 Q639,859 621,877 Q603,895 576,896 L448,896 Q420,895 402,877 Q384,859 384,832 L384,768 L448,768 M896,736 Q896,749 887,758.5 Q878,768 864,768 L159,768 Q146,768 137,758.5 Q128,749 128,735.5 Q128,722 137,713 Q146,704 159,704 L223,704 L223,191 Q224,164 242,146 Q260,128 288,127 L736,127 Q763,128 781,146 Q799,164 800,191 L800,704 L864,704 Q878,704 887,713 Q896,722 896,736 M736,223 Q736,210 726.5,201 Q717,192 704,191 L320,191 Q306,192 297,201 Q288,210 288,223 L288,704 L736,704 M384,288 Q397,288 406,297 Q415,306 416,320 L416,608 Q415,621 406,630 Q397,639 383.5,639 Q370,639 361,630 Q352,621 352,608 L352,320 Q352,306 361,297 Q370,288 384,288 M512,288 Q525,288 534,297 Q543,306 544,320 L544,608 Q543,621 534,630 Q525,639 511.5,639 Q498,639 489,630 Q480,621 480,608 L480,320 Q480,306 489,297 Q498,288 512,288 M640,288 Q653,288 662,297 Q671,306 672,320 L672,608 Q671,621 662,630 Q653,639 639.5,639 Q626,639 617,630 Q608,621 608,608 L608,320 Q608,306 617,297 Q626,288 640,288" />
        <glyph
          glyph-name="apt-shuaxin-f"
          unicode="&#xf1ba;"
          horiz-adv-x="1024" d=" M864,544 Q851,543 842,534 Q833,525 832,512 Q829,376 738.5,285.5 Q648,195 512,191 Q376,195 285.5,285.5 Q195,376 192,512 Q195,648 285.5,738.5 Q376,829 512,832 Q579,832 637,807 Q695,782 738,738 L672,672 L848,672 L848,848 L784,783 Q731,836 661.5,865.5 Q592,895 512,896 Q349,892 240.5,783.5 Q132,675 128,512 Q132,348 240.5,239.5 Q349,131 512,127 Q675,131 783.5,239.5 Q892,348 896,512 Q896,525 887,534 Q878,543 864,544" />
        <glyph
          glyph-name="apt-bianji-f"
          unicode="&#xf1bf;"
          horiz-adv-x="1024" d=" M897,511 Q897,525 888,534 Q879,543 865,543 Q851,543 842,534 Q833,525 833,511 L833,223 Q833,209 824,200 Q815,191 801,191 L224,191 Q211,191 202,200 Q193,209 192,223 L192,799 Q193,813 202,822 Q211,831 224,831 L513,831 Q526,832 535,841 Q544,850 544,863.5 Q544,877 535,886 Q526,895 513,895 L192,895 Q165,895 147,877 Q129,859 128,831 L128,191 Q129,164 147,146 Q165,128 192,127 L833,127 Q860,128 878,146 Q896,164 897,191 M339,429 L320,336 L321,336 Q319,329 325,323.5 Q331,318 339,320 L430,338 L878,786 Q897,806 897,831.5 Q897,857 877.5,876.5 Q858,896 832.5,896 Q807,896 787,877" />
        <glyph
          glyph-name="ugc-gengduo-o"
          unicode="&#xf1cd;"
          horiz-adv-x="1024" d=" M128,544 Q129,510 151.5,487.5 Q174,465 208,465 Q242,465 264.5,487.5 Q287,510 287,544 Q287,578 264.5,600.5 Q242,623 208,623 Q174,623 151.5,600.5 Q129,578 128,544 M736,544 Q737,510 759.5,487.5 Q782,465 816,465 Q850,465 872.5,487.5 Q895,510 895,544 Q895,578 872.5,600.5 Q850,623 816,623 Q782,623 759.5,600.5 Q737,578 736,544 M432,544 Q433,510 455.5,487.5 Q478,465 512,465 Q546,465 568.5,487.5 Q591,510 591,544 Q591,578 568.5,600.5 Q546,623 512,623 Q478,623 455.5,600.5 Q433,578 432,544" />
        <glyph
          glyph-name="apt-baobiao-f"
          unicode="&#xf338;"
          horiz-adv-x="1024" d=" M865,192 L224,192 Q210,192 201,201 Q192,210 192,224 L192,865 Q192,878 183,887 Q174,896 160,896 Q146,896 137,887 Q128,878 128,865 L128,192 Q129,165 147,147 Q165,129 192,128 L865,128 Q878,128 887,137 Q896,146 896,160 Q896,174 887,183 Q878,192 865,192 M352,320 Q366,320 375,329 Q384,338 384,352 L384,736 Q384,750 375,759 Q366,768 352,768 Q338,768 329,759 Q320,750 320,736 L320,352 Q320,338 329,329 Q338,320 352,320 M480,320 Q494,320 503,329 Q512,338 512,352 L512,608 Q512,622 503,631 Q494,640 480,640 Q466,640 457,631 Q448,622 448,608 L448,352 Q448,338 457,329 Q466,320 480,320 M608,320 Q622,320 631,329 Q640,338 640,352 L640,864 Q640,878 631,887 Q622,896 608,896 Q594,896 585,887 Q576,878 576,864 L576,352 Q576,338 585,329 Q594,320 608,320 M736,320 Q750,320 759,329 Q768,338 768,352 L768,736 Q768,750 759,759 Q750,768 736,768 Q722,768 713,759 Q704,750 704,736 L704,352 Q704,338 713,329 Q722,320 736,320" />
        <glyph
          glyph-name="mob-youzhengfuwu-f"
          unicode="&#xf1dc;"
          horiz-adv-x="1024" d=" M672,736 L352,736 Q345,736 340.5,740.5 Q336,745 336,752 Q336,759 340.5,763.5 Q345,768 352,768 L672,768 Q679,768 683.5,763.5 Q688,759 688,752 Q688,745 683.5,740.5 Q679,736 672,736 M208,254 Q209,275 226,287 L293,332 Q304,339 304,352 L304,776 Q304,786 297,793 Q290,800 280,800 L216,800 Q209,801 208,808 L208,840 Q208,857 219.5,868.5 Q231,880 248,880 L776,880 Q793,880 804.5,868.5 Q816,857 816,840 L816,808 Q815,801 808,800 L744,800 Q734,800 727,793 Q720,786 720,776 L720,448 L768,448 L768,752 L808,752 Q832,753 847.5,768.5 Q863,784 864,808 L864,840 Q863,877 838,902 Q813,927 776,928 L248,928 Q211,927 186,902 Q161,877 160,840 L160,808 Q161,784 176.5,768.5 Q192,753 216,752 L256,752 L256,365 L199,327 Q181,314 170.5,295 Q160,276 160,254 L160,168 Q160,151 171.5,139.5 Q183,128 200,128 L480,128 L480,176 L208,176 M960,368 L960,144 Q959,124 945.5,110.5 Q932,97 912,96 L560,96 Q540,97 526.5,110.5 Q513,124 512,144 L512,368 Q513,388 526.5,401.5 Q540,415 560,416 L912,416 Q932,415 945.5,401.5 Q959,388 960,368 M570,384 L725,260 L726,260 Q736,252 746,260 L902,384 M663,269 L544,364 L544,151 M905,128 L784,249 L767,235 Q753,224 736,224 Q719,224 706,235 L688,249 L567,128 M928,364 L809,269 L928,151 M648,672 Q658,672 665,665 Q672,658 672,648 L672,568 Q672,558 665,551 Q658,544 648,544 L376,544 Q366,544 359,551 Q352,558 352,568 L352,648 Q352,658 359,665 Q366,672 376,672 M624,624 L400,624 L400,592 L624,592 M336,368 Q336,361 340.5,356.5 Q345,352 352,352 L480,352 L480,384 L352,384 Q345,384 340.5,379.5 Q336,375 336,368" />
        <glyph
          glyph-name="mob-shouye-f"
          unicode="&#xf228;"
          horiz-adv-x="1024" d=" M608,192 L608,320 Q607,361 580,388 Q553,415 512,415 Q471,415 444,388 Q417,361 416,320 L416,192 Q416,185 411.5,180.5 Q407,176 400,176 Q393,176 388.5,180.5 Q384,185 384,192 L384,320 Q385,374 421.5,410.5 Q458,447 512,448 Q566,447 602.5,410.5 Q639,374 640,320 L640,192 Q640,185 635.5,180.5 Q631,176 624,176 Q617,176 612.5,180.5 Q608,185 608,192 M808,576 Q798,576 791,569 Q784,562 784,552 L784,184 Q784,167 772.5,155.5 Q761,144 744,144 L280,144 Q263,144 251.5,155.5 Q240,167 240,184 L240,552 Q240,562 233,569 Q226,576 216,576 Q206,576 199,569 Q192,562 192,552 L192,184 Q193,147 218,122 Q243,97 280,96 L744,96 Q781,97 806,122 Q831,147 832,184 L832,552 Q832,562 825,569 Q818,576 808,576 M951,595 L572,905 Q545,928 512,928 Q479,928 452,905 L352,823 L352,872 Q352,882 345,889 Q338,896 328,896 L216,896 Q206,896 199,889 Q192,882 192,872 L192,692 L73,594 Q65,588 64,578.5 Q63,569 69.5,561 Q76,553 85.5,552 Q95,551 103,557 L231,662 Q240,669 240,681 L240,848 L304,848 L304,772 Q305,758 318,751.5 Q331,745 343,754 L484,869 Q496,880 512,880 Q528,880 540,869 L921,558 Q928,552 936,552 Q947,552 954,560.5 Q961,569 960,578.5 Q959,588 951,595" />
        <glyph
          glyph-name="mob-wodeshezhi-o"
          unicode="&#xf290;"
          horiz-adv-x="1024" d=" M922,128 L512,128 L102,128 Q92,128 86.5,135.5 Q81,143 83,153 Q113,235 222,293 Q331,351 402,369 Q412,371 418.5,379 Q425,387 426,397 L427,408 Q428,422 419,432 Q403,449 384,478 Q365,507 355,546 L333,552 Q321,555 306,587 Q298,606 300.5,636.5 Q303,667 326,680 Q318,708 315.5,759 Q313,810 372,873 Q398,900 430.5,914 Q463,928 512,928 Q561,928 593.5,913.5 Q626,899 652,873 Q711,810 708.5,759 Q706,708 698,679 Q721,666 723.5,636 Q726,606 718,587 Q703,555 691,551 L669,545 Q659,507 640,478 Q621,449 605,432 Q596,421 597,408 L598,397 Q599,386 605.5,378.5 Q612,371 622,368 Q693,351 802,293 Q911,235 941,153 Q944,143 938,135.5 Q932,128 922,128" />
        <glyph
          glyph-name="travel-shuaxin-f"
          unicode="&#xf295;"
          horiz-adv-x="1024" d=" M853,688 Q803,782 713.5,838.5 Q624,895 512,896 Q367,893 263.5,804.5 Q160,716 133,577 L178,577 Q203,697 294,773.5 Q385,850 512,852 Q611,851 690,802 Q769,753 813,671 L739,639 L898,519 L920,717 M512,172 Q416,173 338.5,219.5 Q261,266 216,344 L292,376 L133,496 L110,298 L176,326 Q226,236 314,182.5 Q402,129 512,128 Q654,131 757,217 Q860,303 888,438 L844,438 Q816,321 726,247.5 Q636,174 512,172" />
        <glyph
          glyph-name="ops-qudaoguanli-o"
          unicode="&#xf332;"
          horiz-adv-x="1024" d=" M360,385 L488,641 Q500,640 512,640 Q593,642 647.5,696.5 Q702,751 704,832 Q702,913 647.5,967.5 Q593,1022 512,1024 Q431,1022 376.5,967.5 Q322,913 320,832 Q320,793 334.5,759 Q349,725 374,699 L246,442 Q311,428 360,385 M512,896 Q539,895 557,877 Q575,859 575,832 Q575,805 557,787 Q539,769 512,769 Q485,769 467,787 Q449,805 449,832 Q449,859 467,877 Q485,895 512,896 M373,256 Q352,313 304,348 Q256,383 192,384 Q111,382 56.5,327.5 Q2,273 0,192 Q2,111 56.5,56.5 Q111,2 192,0 Q256,1 304,36 Q352,71 373,128 L584,128 Q576,159 576,192 Q576,225 584,256 M192,128 Q165,129 147,147 Q129,165 129,192 Q129,219 147,237 Q165,255 192,255 Q219,255 237,237 Q255,219 255,192 Q255,165 237,147 Q219,129 192,128 M832,384 Q820,384 808,383 L680,639 Q631,596 566,582 L694,325 Q669,299 654.5,265 Q640,231 640,192 Q642,111 696.5,56.5 Q751,2 832,0 Q913,2 967.5,56.5 Q1022,111 1024,192 Q1022,273 967.5,327.5 Q913,382 832,384 M832,128 Q805,129 787,147 Q769,165 769,192 Q769,219 787,237 Q805,255 832,255 Q859,255 877,237 Q895,219 895,192 Q895,165 877,147 Q859,129 832,128" />
        <glyph
          glyph-name="apt-biaoqian-f"
          unicode="&#xf340;"
          horiz-adv-x="1024" d=" M609,671 Q610,644 628,626 Q646,608 673.5,608 Q701,608 719,626 Q737,644 737,671.5 Q737,699 719,717 Q701,735 673.5,735 Q646,735 628,717 Q610,699 609,671 M829,896 L536,895 Q518,894 503.5,886 Q489,878 481,864 L147,530 Q128,510 128,484.5 Q128,459 147,440 L440,147 Q459,128 484.5,128 Q510,128 530,147 L875,492 Q878,495 881,499 Q881,499 881,499 L882,500 Q894,517 894,538 L894,830 Q894,858 875.5,876.5 Q857,895 829,896 M829,571 L829,571 Q829,571 829,571 Q828,541 811,520 Q810,517 807,514 L507,215 Q497,205 484.5,205 Q472,205 462,215 L215,462 Q205,472 205,485 Q205,498 215,507 L517,809 Q536,826 562,828 L569,829 L796,830 Q810,830 819,820.5 Q828,811 829,797" />
        <glyph
          glyph-name="travel-kaishi-f"
          unicode="&#xf347;"
          horiz-adv-x="1024" d=" M925,686 Q891,766 829,828 Q767,890 687,924 Q604,959 512.5,959 Q421,959 338,924 Q258,890 196,828 Q134,766 100,686 Q65,603 65,512 Q65,421 100,337 Q134,257 196,195 Q258,133 338,99 Q421,64 512,64 Q603,64 687,99 Q767,133 829,195 Q891,257 925,337 Q960,420 960,511.5 Q960,603 925,686 M513,97 Q337,101 219.5,218.5 Q102,336 98,512 Q102,688 219.5,805 Q337,922 513,926 Q689,922 806,804.5 Q923,687 928,511 Q923,335 806,218 Q689,101 513,97 M736,520 L408,704 L409,320" />
        <glyph
          glyph-name="mob-jia-f"
          unicode="&#xf38d;"
          horiz-adv-x="1024" d=" M832,560 L832,464 L560,464 L560,192 L464,192 L464,464 L192,464 L192,560 L464,560 L464,832 L560,832 L560,560" />
        <glyph
          glyph-name="mob-jiantouxias-f"
          unicode="&#xf3c7;"
          horiz-adv-x="1024" d=" M734,580 L512,359 L290,580 L330,620 L512,438 L694,620" />
        <glyph
          glyph-name="mob-shuaxin-f"
          unicode="&#xf3d3;"
          horiz-adv-x="1024" d=" M928,512 Q928,428 896.5,352.5 Q865,277 806,218 Q747,159 671.5,127.5 Q596,96 512,96 Q428,96 352.5,127.5 Q277,159 218,218 Q159,277 127.5,352.5 Q96,428 96,512 Q96,596 127.5,671.5 Q159,747 218,806 Q277,865 352.5,896.5 Q428,928 512,928 Q596,928 671.5,896.5 Q747,865 806,806 L808,804 L808,904 Q808,914 815,921 Q822,928 832,928 Q842,928 849,921 Q856,914 856,904 L856,744 Q856,734 849,727 Q842,720 832,720 L672,720 Q662,720 655,727 Q648,734 648,744 Q648,754 655,761 Q662,768 672,768 L778,768 Q775,770 772,772 Q720,825 653,852.5 Q586,880 512,880 Q438,880 371,852.5 Q304,825 251.5,772.5 Q199,720 171.5,653 Q144,586 144,512 Q144,438 171.5,371 Q199,304 252,251.5 Q305,199 371.5,171.5 Q438,144 512,144 Q586,144 653,171.5 Q720,199 772,252 Q824,305 852,371.5 Q880,438 880,512 Q880,522 887,529 Q894,536 904,536 Q914,536 921,529 Q928,522 928,512" />
        <glyph
          glyph-name="mob-bianji-o"
          unicode="&#xf3d5;"
          horiz-adv-x="1024" d=" M920,152 Q920,142 913,135 Q906,128 896,128 L128,128 Q118,128 111,135 Q104,142 104,152 Q104,162 111,169 Q118,176 128,176 L896,176 Q906,176 913,169 Q920,162 920,152 M192,250 L244,437 L687,881 Q703,896 721,896 Q739,896 755,881 L856,779 Q872,764 872,745.5 Q872,727 856,712 L413,268 L226,216 Q206,212 197,221.5 Q188,231 192,250 M637,762 L738,661 L806,728 Q819,740 818.5,745.5 Q818,751 806,762 L738,830 Q727,843 721.5,843 Q716,843 704,830 M315,441 Q325,431 357,399 L417,339 L704,627 L603,728 M243,267 L383,306 L282,407" />
        <glyph
          glyph-name="mob-dian-o"
          unicode="&#xf3f9;"
          horiz-adv-x="1024" d=" M704,512 Q702,430 648,376 Q594,322 512,320 Q430,322 376,376 Q322,430 320,512 Q322,594 376,648 Q430,702 512,704 Q594,702 648,648 Q702,594 704,512" />
        <glyph
          glyph-name="mob-lingdang1-f"
          unicode="&#xf46e;"
          horiz-adv-x="1024" d=" M875,215 L790,322 L790,618 Q788,729 716.5,806 Q645,883 536,895 L536,936 Q536,946 529,953 Q522,960 512,960 Q502,960 495,953 Q488,946 488,936 L488,895 Q379,883 307.5,806 Q236,729 234,618 L234,322 L149,215 Q141,203 147,189.5 Q153,176 168,176 L856,176 Q871,176 877.5,189.5 Q884,203 875,215 M217,224 L277,299 Q282,306 282,314 L282,618 Q284,715 349,780.5 Q414,846 512,848 Q610,846 675,780.5 Q740,715 742,618 L742,314 Q742,306 748,299 L807,224 M580,144 L637,144 Q620,108 587,86.5 Q554,65 512,65 Q470,65 437,86.5 Q404,108 387,144 L444,144 Q456,129 473.5,120.5 Q491,112 512,112 Q533,112 550.5,120.5 Q568,129 580,144" />
        <glyph
          glyph-name="mob-36chazi-f"
          unicode="&#xf471;"
          horiz-adv-x="1024" d=" M793,281 Q804,270 804,256 Q804,242 793,231 Q782,220 768,220 Q754,220 743,230 L512,461 L281,231 Q270,220 256,220 Q242,220 231,231 Q220,242 220,256 Q220,270 231,282 L461,512 L231,743 Q220,754 220,768 Q220,782 231,793 Q242,804 256,804 Q270,804 282,794 L512,563 L743,794 Q754,804 768,804 Q782,804 793,793.5 Q804,783 804,768.5 Q804,754 794,743 L563,512" />
        <glyph
          glyph-name="mob-biaoji-f"
          unicode="&#xf47b;"
          horiz-adv-x="1024" d=" M544,768 Q544,754 535,745 Q526,736 512,736 Q498,736 489,745 Q480,754 480,768 Q480,782 489,791 Q498,800 512,800 Q526,800 535,791 Q544,782 544,768 M800,896 L800,96 Q800,81 790.5,72.5 Q781,64 768.5,64 Q756,64 746,72 L512,288 L278,72 Q268,64 255.5,64 Q243,64 233.5,72.5 Q224,81 224,96 L224,896 Q225,923 243,941 Q261,959 288,960 L736,960 Q763,959 781,941 Q799,923 800,896 M752,896 Q752,903 747.5,907.5 Q743,912 736,912 L288,912 Q281,912 276.5,907.5 Q272,903 272,896 L272,132 L480,323 Q494,336 512,336 Q530,336 544,323 L752,132" />
        <glyph
          glyph-name="mob-dingdanliebiao-f"
          unicode="&#xf47f;"
          horiz-adv-x="1024" d=" M736,400 Q736,393 731.5,388.5 Q727,384 720,384 L432,384 Q425,384 420.5,388.5 Q416,393 416,400 Q416,407 420.5,411.5 Q425,416 432,416 L720,416 Q727,416 731.5,411.5 Q736,407 736,400 M176,832 Q156,831 142.5,817.5 Q129,804 128,784 L128,112 Q129,92 142.5,78.5 Q156,65 176,64 L720,64 Q740,65 753.5,78.5 Q767,92 768,112 L176,112 M896,752 L896,240 Q895,220 881.5,206.5 Q868,193 848,192 L304,192 Q284,193 270.5,206.5 Q257,220 256,240 L256,912 Q257,932 270.5,945.5 Q284,959 304,960 L688,960 M848,732 L668,912 L304,912 L304,240 L848,240 M720,512 L432,512 Q425,512 420.5,507.5 Q416,503 416,496 Q416,489 420.5,484.5 Q425,480 432,480 L720,480 Q727,480 731.5,484.5 Q736,489 736,496 Q736,503 731.5,507.5 Q727,512 720,512 M656,864 Q656,871 651.5,875.5 Q647,880 640,880 Q633,880 628.5,875.5 Q624,871 624,864 L624,704 Q624,697 628.5,692.5 Q633,688 640,688 L800,688 Q807,688 811.5,692.5 Q816,697 816,704 Q816,711 811.5,715.5 Q807,720 800,720 L656,720" />
        <glyph
          glyph-name="ops-shanchu-f"
          unicode="&#xf513;"
          horiz-adv-x="1024" d=" M416,224 Q402,224 393,233 Q384,242 384,256 L384,672 Q384,686 393,695 Q402,704 416,704 Q430,704 439,695 Q448,686 448,672 L448,256 Q448,242 439,233 Q430,224 416,224 M768,224 Q767,197 749,179 Q731,161 704,160 L320,160 Q293,161 275,179 Q257,197 256,224 L256,736 L192,736 L192,224 Q193,170 229.5,133.5 Q266,97 320,96 L704,96 Q758,97 794.5,133.5 Q831,170 832,224 L832,736 L768,736 M896,824 Q896,810 887,801 Q878,792 864,792 L160,792 Q146,792 137,801 Q128,810 128,824 Q128,838 137,847 Q146,856 160,856 L384,856 L384,864 Q385,905 412,932 Q439,959 480,960 L544,960 Q585,959 612,932 Q639,905 640,864 L640,856 L864,856 Q878,856 887,847 Q896,838 896,824 M576,864 Q576,878 567,887 Q558,896 544,896 L480,896 Q466,896 457,887 Q448,878 448,864 L448,856 L576,856 M640,256 L640,672 Q640,686 631,695 Q622,704 608,704 Q594,704 585,695 Q576,686 576,672 L576,256 Q576,242 585,233 Q594,224 608,224 Q622,224 631,233 Q640,242 640,256" />
        <glyph
          glyph-name="mob-dianyuandfff-f"
          unicode="&#xe005;"
          horiz-adv-x="1024" d=" M488 568V936C488 949.2 498.8 960 512 960S536 949.2 536 936V568C536 554.8 525.2 544 512 544S488 554.8 488 568zM826.6 732.4C782.2 795.6 720.6 843.6 648.6 871C636.2 875.8 622.4 869.4 617.6 857.2C612.8 844.8 619.2 831 631.4 826.2C761 776.8 848 650.6 848 512C848 326.8 697.2 176 512 176S176 326.8 176 512C176 650.6 263 776.8 392.6 826.2C405 831 411.2 844.8 406.4 857.2S387.8 875.8 375.4 871C303.4 843.6 241.8 795.6 197.4 732.4C152 667.6 128 591.4 128 512C128 300.2 300.2 128 512 128S896 300.2 896 512C896 591.4 872 667.6 826.6 732.4z" />
        <glyph
          glyph-name="mob-jiantouzuol-f"
          unicode="&#xf3cd;"
          horiz-adv-x="1024" d=" M697.2 125C711.2 111 711.2 88.4 697.2 74.6C690.2 67.6 681.2 64.2 672 64.2S653.8 67.6 646.8 74.6L234.4 486.8C220.4 500.8 220.4 523.4 234.4 537.2L646.8 949.6C660.8 963.6 683.4 963.6 697.2 949.6C711.2 935.6 711.2 913 697.2 899.2L310.2 512L697.2 125z" />
        <glyph
          glyph-name="mob-jiantoushangl-f"
          unicode="&#xf3ca;"
          horiz-adv-x="1024" d=" M949.6 266.4C942.6 259.4 933.6 256 924.4 256S906.2 259.4 899.2 266.4L512 653.6L125 266.4C111 252.4 88.4 252.4 74.6 266.4C60.6 280.4 60.6 303 74.6 316.8L487 729.2C501 743.2 523.6 743.2 537.4 729.2L949.8 316.8C963.4 303 963.4 280.4 949.6 266.4z" />
        <glyph
          glyph-name="iagent-checkede091-o"
          unicode="&#xe091;"
          horiz-adv-x="1024" d=" M693.696 732.8L384 423.104L266.304 540.8C253.824 553.28 233.536 553.28 221.056 540.8S208.576 508.032 221.056 495.552L361.344 355.264C367.616 348.992 375.808 345.856 384 345.856S400.384 348.992 406.656 355.2L738.944 687.488C751.424 699.968 751.424 720.256 738.944 732.736S706.176 745.28 693.696 732.8z M480 1024C214.912 1024 0 809.088 0 544S214.912 64 480 64S960 278.912 960 544S745.088 1024 480 1024zM480 128C250.24 128 64 314.24 64 544S250.24 960 480 960S896 773.76 896 544S709.76 128 480 128z" />
        <glyph
          glyph-name="iagent-matchpercente094-o"
          unicode="&#xe094;"
          horiz-adv-x="1024" d=" M512 1024C229.696 1024 0 794.304 0 512C0 419.712 24.832 329.344 71.744 250.432C80.256 236.096 98.688 231.424 113.088 239.936C127.36 248.512 132.032 266.944 123.584 281.28C87.36 342.144 67.072 411.072 62.336 481.92L272.96 481.92C286.656 372.608 372.736 286.592 481.984 272.832L481.984 62.72C389.888 68.8 303.168 100.736 230.4 158.848C217.344 169.152 198.4 167.104 188.096 154.176C177.664 141.184 179.84 122.24 192.832 111.808C284.224 38.656 394.688 0 512 0C794.368 0 1024 229.696 1024 512S794.368 1024 512 1024zM962.24 542.144L751.104 542.144C737.344 651.392 651.328 737.344 542.08 751.168L542.08 962.24C767.168 947.264 947.328 767.168 962.24 542.144zM542.144 481.856L690.88 481.856C678.144 405.76 618.24 345.856 542.144 333.056L542.144 481.856zM542.144 542.144L542.144 690.88C618.24 678.08 678.144 618.24 690.88 542.144L542.144 542.144zM481.856 542.144L333.12 542.144C345.856 618.24 405.76 678.08 481.856 690.88L481.856 542.144zM481.856 962.24L481.856 751.104C372.608 737.344 286.656 651.328 272.832 542.08L61.76 542.08C76.736 767.168 256.832 947.264 481.856 962.24zM333.12 481.856L481.856 481.856L481.856 333.056C405.76 345.856 345.856 405.76 333.12 481.856zM542.144 61.76L542.144 272.832C651.392 286.592 737.408 372.608 751.168 481.92L962.304 481.92C947.328 256.832 767.168 76.672 542.144 61.76z" />
        <glyph
          glyph-name="travel-xiangxiajiantoue101-f"
          unicode="&#xe101;"
          horiz-adv-x="1024" d=" M895.902 679.796L512.104 292.568L460.916 344.194L844.728 731.434L895.902 679.796z M563.274 344.194L512.104 292.568L128.292 679.796L179.468 731.432L563.274 344.194z" />
        <glyph
          glyph-name="mob-yushouquane12c-f"
          unicode="&#xe12c;"
          horiz-adv-x="1024" d=" M832.242 783.73L518.406 923.214C511.55 926.262 503.724 926.262 496.866 923.214L183.03 783.73C173.448 779.472 167.272 769.968 167.272 759.482V549.818C167.272 342.282 309.252 148.058 501.086 97.66C505.374 96.534 509.898 96.534 514.186 97.66C706.02 148.058 848 342.282 848 549.818V759.482C848 769.968 841.824 779.472 832.242 783.73zM800 549.818C800 458.29 768.94 366.3 712.54 290.794C660.742 221.446 591.394 171.304 515.588 147.966C510.404 146.37 504.868 146.37 499.684 147.966C423.878 171.304 354.532 221.446 302.732 290.794C246.332 366.3 215.272 458.29 215.272 549.818V728.29C215.272 738.776 221.448 748.278 231.03 752.538L496.866 870.688C503.722 873.736 511.548 873.736 518.406 870.688L784.242 752.538C793.824 748.28 800 738.776 800 728.29V549.818z M693.874 667.146C687.296 673.772 676.584 673.79 669.982 667.188L444.628 441.836C438.052 435.26 427.392 435.248 420.802 441.812L346.702 515.626C340.112 522.19 329.452 522.18 322.876 515.602L293.378 486.104C286.792 479.518 286.792 468.84 293.378 462.254L420.8 334.83C427.386 328.244 438.064 328.244 444.65 334.83L723.388 613.568C729.958 620.138 729.976 630.782 723.43 637.376L693.874 667.146z" />
        <glyph
          glyph-name="机票众包-jiantouyoue145-f"
          unicode="&#xe145;"
          horiz-adv-x="1024" d=" M721.8 507.4C721.8 507.4 721.8 507.6 721.8 507.6C721.8 508 721.8 508.4 721.8 508.8C722.6 520.2 718.8 531.8 710.4 540.2C710.4 540.2 710.4 540.2 710.2 540.2C710.2 540.2 710.2 540.2 710.2 540.4L367 883.8C351.6 899.2 325.4 899.8 309.6 884C294.2 868.6 293.8 842.4 309.8 826.6L624.4 512L309.8 197C294.4 181.6 293.8 155.4 309.6 139.6C325 124.2 351.2 123.8 367 139.8L710.2 483C710.2 483 710.2 483 710.2 483.2C710.2 483.2 710.2 483.2 710.4 483.2C717 489.8 720.8 498.4 721.8 507.4z" />
        <glyph
          glyph-name="mob-cugantanhaoe159-f"
          unicode="&#xe159;"
          horiz-adv-x="1024" d=" M512 896C300.262 896 128 723.738 128 512S300.262 128 512 128S896 300.262 896 512S723.738 896 512 896zM512 160C317.906 160 160 317.906 160 512S317.906 864 512 864S864 706.094 864 512S706.094 160 512 160z M512 402C528.568 402 542 415.432 542 432V744C542 760.568 528.568 774 512 774S482 760.568 482 744V432C482 415.432 495.432 402 512 402z M464 304C464 277.49 485.49 256 512 256C538.51 256 560 277.49 560 304C560 330.51 538.51 352 512 352C485.49 352 464 330.51 464 304z" />
        <glyph
          glyph-name="mob-shandiane15d-o"
          unicode="&#xe15d;"
          horiz-adv-x="1024" d=" M693.4 493.4C688.4 519.8 522.2 573.8 518 584.4C513.8 595 665.4 920.8 656.8 928C648.2 935.2 320.2 559.8 328 534.8C336 509.8 498 458 503.4 443.8C508.6 429.6 355.8 106 364.6 100.2C373.4 94.2 698.4 466.8 693.4 493.4z" />
        <glyph
          glyph-name="www-shishijiankonge190-f"
          unicode="&#xe190;"
          horiz-adv-x="1024" d=" M882.88 846.336C895.616 846.336 902.08 839.936 902.08 827.2V364.032C902.08 351.296 895.616 344.896 882.88 344.896H141.12C128.32 344.896 121.984 351.296 121.984 364.032V827.2C121.984 839.936 128.384 846.336 141.12 846.336H882.88zM846.336 400.576V790.592H177.664V400.512H846.336zM592.064 177.664H431.872C391.232 177.664 371.52 181.696 372.672 189.824C372.672 192.128 374.976 195.072 379.648 198.528C384.256 202.048 391.552 206.656 401.408 212.48C411.264 218.304 418.816 223.232 424.064 227.264C429.312 231.296 431.872 235.072 431.872 238.592L433.6 316.992H512H590.336C591.552 269.376 592.064 243.264 592.064 238.592C592.064 235.072 594.688 231.36 599.936 227.264C605.12 223.232 612.672 218.24 622.592 212.48C632.384 206.656 639.744 202.048 644.352 198.528C658.304 188.096 651.904 181.696 625.216 179.392L592.064 177.664z" />
        <glyph
          glyph-name="www-shouqie191-f"
          unicode="&#xe191;"
          horiz-adv-x="1024" d=" M64 211.2H960V313.6H64V211.2zM64 460.8H960V563.2H64V460.8zM64 812.8V710.4H960V812.8H64z" />
        <glyph
          glyph-name="www-xitongpeizhie195-f"
          unicode="&#xe195;"
          horiz-adv-x="1024" d=" M512 640Q458.001 639 421.498 602.502Q385 565.999 384 512Q385 458.001 421.498 421.498Q458.001 385 512 384Q565.999 385 602.502 421.498Q639 458.001 640 512Q639 565.999 602.502 602.502Q565.999 639 512 640M512 416.001Q471 417.001 443.998 443.998Q417.001 471 417.001 512T443.998 580.002Q471 606.999 512 606.999T580.002 580.002Q606.999 553 606.999 512T580.002 443.998Q553 417.001 512 416.001M846.001 619.998H808Q803.001 633.001 796.997 645L823.999 672.001Q848.001 695.999 848.001 730Q848.001 764 823.999 787.998L787.998 823.999Q764 848.001 730 848.001Q695.999 848.001 672.001 823.999L644 797.001L620.002 807V846.001Q618.998 881.001 596 903.999Q572.998 927.001 538.002 928.001H485.998Q452.002 926.997 428.502 903.999Q404.998 881.001 403.998 846.001V806Q391.999 801.001 381 796.001L351.999 823.999Q328.001 848.001 294 848.001Q260 848.001 236.002 823.999L200.001 787.998Q175.999 763 175.999 730T200.001 672.001L227.999 643Q222.999 631.997 218 620.002H178.003Q142.999 618.998 120.001 596Q96.999 572.998 95.999 538.002V485.998Q97.003 451.002 120.001 428T177.999 403.998H217L226.999 380L200.001 351.999Q175.999 328.001 175.999 294Q175.999 260 200.001 236.002L236.002 199.001Q261 175.999 294.498 175.999Q328.001 175.999 352.003 199.001L379 225.999Q390.999 219.999 403.998 216V177.999Q405.002 142.999 428 120.001Q451.002 96.999 485.998 95.999H538.002Q572.998 97.003 596 120.001T620.002 177.999V215L645.999 224.999L672.001 199.001Q695.999 175.999 730 175.999Q764 175.999 787.998 199.001L823.999 236.002Q848.001 261 848.001 294T823.999 351.999L798.001 378.001Q804.001 390.999 809 403.998H846.001Q881.001 405.002 903.999 428Q927.001 451.002 928.001 485.998V538.002Q926.997 572.998 903.999 596T846.001 620.002M880.002 485.998Q880.002 472 870.002 462.001Q860.003 452.002 846.001 452.002H792.002Q775.999 450.998 770 435.999L764 420.001Q760.001 408.998 755.001 397.999L748.002 383Q741.998 368.002 753.001 355.999L790.002 317.998Q800.001 307.999 800.001 294.498Q800.001 281.002 790.002 270.003L754.001 233.998Q744.002 223.999 730 223.999Q716.001 223.999 706.002 233.998L668.001 270.999Q655.998 282.002 641 275.998L626.001 268.999Q614.998 263.999 603.999 260.004L588.001 254Q572.998 248.001 571.998 231.998V177.999Q571.998 164.001 561.999 154.002Q552 144.003 538.002 144.003H485.998Q472 144.003 462.499 154.002Q453.002 164.001 452.002 177.999V232.998Q450.998 249.001 436.999 255L421.001 261Q409.998 264.999 399.998 269.999L384 276.998Q379 280.002 374.001 280.002Q365.002 280.002 356.999 272.998L318.998 233.998Q308.999 223.999 294.502 223.999Q280.002 223.999 269.999 233.998L233.998 269.999Q223.999 279.998 223.999 294Q223.999 307.999 233.998 317.998L272.998 357.998Q284.001 370.001 278.002 385L270.999 399.998Q265.999 409.998 262.003 421.001L257 435.999Q250.001 452.002 233.998 452.002H177.999Q164.001 453.002 154.002 462.499Q144.003 472 144.003 485.998V538.002Q144.003 552 154.002 561.999Q164.001 571.998 177.999 571.998H235.002Q251 573.002 257 588.001L262.999 602.999Q266.999 612.999 271.998 622.998L279.002 638Q285.001 653.999 273.998 666.002L234.002 705.998Q224.003 715.997 224.003 730Q224.003 743.998 234.002 754.001L269.999 790.002Q279.998 800.001 294 800.001Q307.999 800.001 317.998 790.002L358.998 750.002Q371.001 738.999 386 744.998L400.998 752.002Q410.997 757.001 420.997 760.997L435.999 767Q451.002 773 452.002 788.998V846.001Q452.002 859.999 462.001 869.998Q472 879.997 485.998 879.997H538.002Q552 879.997 561.501 869.998Q570.998 859.999 571.998 846.001V790.002Q573.002 773 588.001 767L602.999 761.001Q614.002 757.001 624.002 753.001L639 745.998Q653.999 739.999 666.002 751.002L705.998 790.002Q715.997 800.001 730 800.001Q743.998 800.001 754.001 790.002L790.002 754.001Q800.001 744.002 800.001 729.502Q800.001 715.001 790.002 705.002L752.002 667.001Q740.999 654.999 747.002 639L754.001 624.002Q759.001 614.002 762.996 602.999L769 587.001Q774.999 571.998 791.002 571.998H846.001Q859.999 570.998 869.998 561.501Q879.997 552 879.997 537.002" />
        <glyph
          glyph-name="www-duanxinchaxune19e-f"
          unicode="&#xe19e;"
          horiz-adv-x="1024" d=" M551.996 575.998Q551.996 559 540.499 547.499Q528.998 536.002 512 536.002Q495.002 536.002 483.501 547.499Q472 559 472 575.998Q472 593 483.501 604.501Q495.002 615.998 512 615.998Q528.998 615.998 540.499 604.501Q552 593 552 576.002M335.996 615.998Q318.998 615.998 307.501 604.501Q296 593 296 576.002Q296 559 307.501 547.499Q318.998 536.002 336.001 536.002Q352.999 536.002 364.5 547.499Q376.001 559 376.001 575.998Q376.001 593 364.5 604.501Q352.999 615.998 336.001 615.998M687.999 615.998Q671.001 615.998 659.5 604.501Q647.999 593 647.999 576.002Q647.999 559 659.5 547.499Q671.001 536.002 687.999 536.002Q705.002 536.002 716.499 547.499Q728 559 728 575.998Q728 593 716.499 604.501Q705.002 615.998 687.999 615.998M896 807V346Q895 307.999 869.496 282.5Q843.997 257 807 256H500.997L348.995 140.999Q332.997 128 312.995 128Q289.997 129 272.998 144.998Q255.996 161.001 255.996 184.999V256H217.996Q179.995 257 154.495 282.504Q128.996 308.003 127.996 345V807Q128.996 844.001 154.5 869.5Q179.999 895 216.996 896H805.996Q843.997 895 869.496 869.496Q894.996 843.997 895.996 807M847.996 807Q847.996 823.999 835.998 836.002Q823.995 848.001 806.996 848.001H217Q200.001 848.001 187.998 836.002Q175.999 823.999 175.999 807V346Q175.999 328.001 187.998 316.5Q200.001 304.999 217 303.999H303.999V184.999Q303.999 180.999 306.501 178.501Q308.999 175.999 312.501 175.999Q315.998 175.999 318.002 177.999L484.999 303.999H806Q823.999 305.003 835.5 316.5Q847.001 328.001 848.001 346" />
        <glyph
          glyph-name="www-kefuxinxie1a4-f"
          unicode="&#xe1a4;"
          horiz-adv-x="1024" d=" M716.736 228.928C748.224 211.456 763.968 195.648 763.968 181.696V110.848C763.968 97.408 759.296 86.208 749.952 77.184S729.536 63.616 716.672 63.616H111.232C98.368 63.616 87.296 68.096 77.952 77.184C68.672 86.208 64 97.344 64 110.784V181.632C64 194.432 79.744 210.176 111.232 228.864L292.352 326.848C259.072 353.088 236.032 388.096 223.232 431.872C210.432 475.712 204.032 510.4 204.032 536.064V654.208C204.032 674.048 210.176 693.696 222.4 713.28C234.624 732.8 250.688 750.464 270.528 766.208C290.368 781.952 312.96 794.752 338.368 804.736C363.712 814.656 389.248 819.584 414.912 819.584C441.152 819.584 466.816 814.592 491.904 804.736C516.992 794.816 539.264 782.016 558.848 766.208S594.112 732.8 606.08 713.28C618.048 693.696 624 674.048 624 654.208V536.064C624 507.456 618.304 471.872 606.912 429.312S573.504 352.32 540.864 326.08L716.736 228.928zM707.968 119.552V169.408C706.24 171.136 704.128 172.608 701.824 173.76S697.152 176.064 694.848 177.28C694.272 177.28 693.504 177.6 692.672 178.176S690.816 179.392 689.6 179.904L513.728 277.056C505.536 281.728 498.88 288 493.632 295.872S485.44 312.384 484.864 321.664C483.648 331.008 484.992 340.032 488.832 348.8C492.608 357.568 498.304 364.864 505.92 370.688C529.792 389.376 546.112 416.064 554.88 450.752S568 513.856 568 536.064V654.208C568 674.624 552.704 697.984 522.048 724.224S455.68 763.584 414.848 763.584C375.168 763.584 339.456 750.464 307.648 724.224C275.84 697.984 259.968 674.624 259.968 654.208V536.064C259.968 513.856 265.216 485.44 275.712 450.752S303.424 389.376 327.36 370.688C334.336 364.864 339.712 357.568 343.552 348.8C347.328 340.032 348.672 331.008 347.52 321.664C346.944 312.32 344 303.744 338.752 295.872S326.784 281.984 318.656 277.952L137.536 179.072C136.96 179.072 136.32 178.944 135.808 178.624C135.232 178.304 134.592 177.856 134.08 177.28C131.712 176.704 129.28 175.552 126.656 173.76S121.856 170.56 120.064 169.408V119.552H707.968zM912.768 368.064C944.256 350.592 960 334.784 960 320.832V250.816C960 237.376 955.328 226.176 945.984 217.152S925.568 203.584 912.704 203.584H819.968C816.448 215.808 812.864 226.624 809.024 235.968S799.296 253.184 791.104 259.584H904V309.44C902.272 310.656 900.16 311.936 897.856 313.408S893.184 315.904 890.88 316.48C890.304 317.056 889.536 317.504 888.704 317.824S886.848 318.592 885.632 319.168L707.136 416.32C698.944 420.992 692.288 427.264 687.04 435.136S678.784 451.52 678.272 460.8C677.056 470.144 678.4 479.168 682.24 487.936S691.712 503.936 699.328 509.824C723.264 529.088 740.032 556.032 749.632 590.784C759.232 625.472 764.096 653.632 764.096 675.2V793.344C764.096 814.336 748.352 837.952 716.864 864.192S649.152 903.552 608.384 903.552C588.544 903.552 569.472 900.352 551.04 893.952C532.544 887.488 516.032 878.72 501.504 867.712C490.432 871.168 478.72 873.216 466.496 873.792C454.272 874.368 442.304 874.944 430.656 875.584C451.072 899.52 477.312 919.616 509.376 935.936C541.44 952.256 574.4 960.448 608.256 960.448C634.496 960.448 660.288 955.328 685.696 945.152C711.04 934.912 733.696 921.984 753.536 906.24S789.44 872.704 801.664 852.864C813.888 833.024 820.032 813.184 820.032 793.344V675.2C820.032 647.168 813.888 611.776 801.664 568.896S766.976 491.712 734.272 466.112L912.768 368.064z" />
        <glyph
          glyph-name="mob-gengduoe1ba-f"
          unicode="&#xe1ba;"
          horiz-adv-x="1024" d=" M512 928C282.6 928 96 741.4 96 512S282.6 96 512 96S928 282.6 928 512S741.4 928 512 928zM512 144C309 144 144 309 144 512S309 880 512 880S880 715 880 512S715 144 512 144zM512 560C485.4 560 464 538.6 464 512S485.4 464 512 464S560 485.4 560 512S538.6 560 512 560zM304 560C277.4 560 256 538.6 256 512S277.4 464 304 464S352 485.4 352 512S330.6 560 304 560zM720 560C693.4 560 672 538.6 672 512S693.4 464 720 464S768 485.4 768 512S746.6 560 720 560z" />
        <glyph
          glyph-name="mob-liulanjilu-f"
          unicode="&#xf1f8;"
          horiz-adv-x="1024" d=" M480 792C466.8 792 456 781.2 456 768V480C456 466.8 466.8 456 480 456H672C685.2 456 696 466.8 696 480S685.2 504 672 504H504V768C504 781.2 493.2 792 480 792zM806.2 806.2C727.6 884.8 623.2 928 512 928S296.4 884.8 217.8 806.2C217.2 805.6 216.6 804.8 216 804.2V904C216 917.2 205.2 928 192 928S168 917.2 168 904V744C168 730.8 178.8 720 192 720H352C365.2 720 376 730.8 376 744S365.2 768 352 768H246C248 769 250 770.4 251.6 772.2C321.2 841.8 413.8 880 512 880S702.8 841.8 772.2 772.2S880 610.2 880 512S841.8 321.2 772.2 251.8S610.2 144 512 144S321.2 182.2 251.8 251.8S144 413.8 144 512C144 525.2 133.2 536 120 536S96 525.2 96 512C96 400.8 139.2 296.4 217.8 217.8S400.8 96 512 96S727.6 139.2 806.2 217.8S928 400.8 928 512S884.8 727.6 806.2 806.2z" />
        <glyph
          glyph-name="YSHOW-viewe1db-f"
          unicode="&#xe1db;"
          horiz-adv-x="1024" d=" M1012.444 523.327L1010.921 525.867C865.194 743.162 701.537 853.333 524.419 853.333C226.489 853.333 13.181 526.502 11.581 523.327C1.549 503.848 1.549 483.2 11.581 463.644L13.867 459.987C175.568 244.495 338.514 139.733 512 139.733C588.394 139.733 658.083 160.737 719.848 192.432C752.102 208.965 788.19 230.298 809.829 249.346C814.349 253.359 816.762 260.317 816.762 267.175C816.762 281.219 805.384 292.571 791.365 292.571C785.778 292.571 780.902 290.387 776.711 287.365C776.711 287.365 716.47 246.629 682.844 230.756C631.111 206.273 573.841 190.552 512 190.552C356.114 190.552 206.959 288.025 56.025 488.457C54.324 492.546 54.527 495.797 56.533 499.683C58.26 502.705 256.813 802.54 524.419 802.54C683.175 802.54 832.305 700.419 967.797 498.997C968.381 497.676 968.711 496.559 968.914 495.746L966.679 492.394C949.943 466.997 879.01 380.47 871.314 372.038C863.619 363.606 860.419 360.254 860.419 351.746C860.419 337.702 871.797 326.349 885.816 326.349C893.079 326.349 898.794 328.99 904.178 334.375C909.562 339.733 990.908 436.851 1009.092 464.432L1009.879 465.625C1022.248 479.924 1023.34 502.121 1012.444 523.327L1012.444 523.327zM393.498 499.606C393.498 437.46 448.889 382.959 512 382.959C576.203 382.959 630.476 436.394 630.476 499.606C630.476 562.819 576.203 616.203 512 616.203C448.889 616.203 393.498 561.727 393.498 499.606L393.498 499.606zM579.683 499.606C579.683 465.143 547.403 433.752 512 433.752C476.546 433.752 444.292 465.143 444.292 499.606C444.292 534.044 476.571 565.41 512 565.41C547.429 565.41 579.683 534.044 579.683 499.606L579.683 499.606z" />
        <glyph
          glyph-name="YSHOW-Categorye1dc-f"
          unicode="&#xe1dc;"
          horiz-adv-x="1024" d=" M134.095 768C147.56 768 158.476 777.551 158.476 789.333C158.476 801.115 147.56 810.667 134.095 810.667L36.571 810.667C23.106 810.667 12.19 801.115 12.19 789.333C12.19 777.551 23.106 768 36.571 768L134.095 768zM134.095 490.667C147.56 490.667 158.476 500.218 158.476 512C158.476 523.782 147.56 533.333 134.095 533.333L36.571 533.333C23.106 533.333 12.19 523.782 12.19 512C12.19 500.218 23.106 490.667 36.571 490.667L134.095 490.667zM134.095 213.333C147.56 213.333 158.476 222.885 158.476 234.667C158.476 246.449 147.56 256 134.095 256L36.571 256C23.106 256 12.19 246.449 12.19 234.667C12.19 222.885 23.106 213.333 36.571 213.333L134.095 213.333zM987.429 768C1000.894 768 1011.81 777.551 1011.81 789.333C1011.81 801.115 1000.894 810.667 987.429 810.667L280.381 810.667C266.916 810.667 256 801.115 256 789.333C256 777.551 266.916 768 280.381 768L987.429 768zM993.524 490.667C1006.989 490.667 1017.905 500.218 1017.905 512C1017.905 523.782 1006.989 533.333 993.524 533.333L286.476 533.333C273.011 533.333 262.095 523.782 262.095 512C262.095 500.218 273.011 490.667 286.476 490.667L993.524 490.667zM996.571 213.333C1010.037 213.333 1020.952 222.885 1020.952 234.667C1020.952 246.449 1010.037 256 996.571 256L289.524 256C276.059 256 265.143 246.449 265.143 234.667C265.143 222.885 276.059 213.333 289.524 213.333L996.571 213.333z" />
        <glyph
          glyph-name="mob-xiajiantouquane1f8-f"
          unicode="&#xe1f8;"
          horiz-adv-x="1024" d=" M512 928C282.6 928 96 741.4 96 512S282.6 96 512 96S928 282.6 928 512S741.4 928 512 928zM512 144C309 144 144 309 144 512S309 880 512 880S880 715 880 512S715 144 512 144zM727 625L512 410L297 625C287.6 634.4 272.4 634.4 263 625C253.6 615.6 253.6 600.4 263 591L495 359C499.6 354.4 505.8 352 512 352S524.2 354.4 529 359L761 591C770.4 600.4 770.4 615.6 761 625C751.6 634.4 736.4 634.4 727 625z" />
        <glyph
          glyph-name="mob-youjiantouquane1f9-f"
          unicode="&#xe1f9;"
          horiz-adv-x="1024" d=" M512 928C282.6 928 96 741.4 96 512S282.6 96 512 96S928 282.6 928 512S741.4 928 512 928zM512 144C309 144 144 309 144 512S309 880 512 880S880 715 880 512S715 144 512 144zM433 761C423.6 770.4 408.4 770.4 399 761C389.6 751.6 389.6 736.4 399 727L614 512L399 297C389.6 287.6 389.6 272.4 399 263C403.6 258.4 409.8 256 416 256S428.2 258.4 433 263L665 495C674.4 504.4 674.4 519.6 665 529L433 761z" />
        <glyph
          glyph-name="mob-wenjianjiae211-f"
          unicode="&#xe211;"
          horiz-adv-x="1024" d=" M888 736H470.8L433.8 809.8C427 823.4 413.2 832 398 832H136C114 832 96 814 96 792V280C96 231.4 135.4 192 184 192H840C888.6 192 928 231.4 928 280V696C928 718 910 736 888 736zM880 280C880 258 862 240 840 240H184C162 240 144 258 144 280V784H393.2L430.2 710.2C437 696.6 450.8 688 466 688H880V280zM176 624C176 615.2 183.2 608 192 608H832C840.8 608 848 615.2 848 624S840.8 640 832 640H192C183.2 640 176 632.8 176 624z" />
        <glyph
          glyph-name="mob-wenjianjiae210-o"
          unicode="&#xe210;"
          horiz-adv-x="1024" d=" M888 736H470.8L433.8 809.8C427 823.4 413.2 832 398 832H136C114 832 96 814 96 792V280C96 231.4 135.4 192 184 192H840C888.6 192 928 231.4 928 280V696C928 718 910 736 888 736zM832 608H192C183.2 608 176 615.2 176 624S183.2 640 192 640H832C840.8 640 848 632.8 848 624S840.8 608 832 608z" />
        <glyph
          glyph-name="www-ic_databasee1c9-f"
          unicode="&#xe1c9;"
          horiz-adv-x="1024" d=" M354.133 285.867C345.6 285.867 337.067 281.6 332.8 277.333S324.267 264.533 324.267 256S328.533 238.933 332.8 234.667S345.6 226.133 354.133 226.133S371.2 230.4 375.467 234.667S384 247.467 384 256S379.733 273.067 375.467 277.333S362.667 285.867 354.133 285.867zM354.133 546.133C345.6 546.133 337.067 541.867 332.8 537.6S324.267 524.8 324.267 516.267S328.533 499.2 332.8 494.933S345.6 486.4 354.133 486.4S371.2 490.667 375.467 494.933S384 507.733 384 516.267S379.733 533.333 375.467 537.6S362.667 546.133 354.133 546.133zM814.933 921.6C802.133 934.4 789.333 938.667 772.267 938.667H251.733C234.667 938.667 221.867 934.4 209.067 921.6S192 896 192 878.933V145.067C192 128 196.267 115.2 209.067 102.4S234.667 85.333 251.733 85.333H772.267C789.333 85.333 802.133 89.6 814.933 102.4S832 128 832 145.067V878.933C832 896 827.733 908.8 814.933 921.6zM772.267 153.6H251.733V358.4C251.733 358.4 251.733 358.4 251.733 358.4H768C768 358.4 768 358.4 768 358.4V153.6zM772.267 413.867C772.267 413.867 772.267 413.867 772.267 413.867L251.733 413.867C251.733 413.867 251.733 413.867 251.733 413.867V618.667C251.733 618.667 251.733 618.667 251.733 618.667H768C768 618.667 768 618.667 768 618.667V413.867zM772.267 674.133C772.267 678.4 772.267 678.4 772.267 674.133L251.733 674.133C251.733 674.133 251.733 674.133 251.733 674.133V878.933H772.267V674.133zM354.133 746.667C362.667 746.667 371.2 750.933 375.467 755.2S384 768 384 776.533S379.733 793.6 375.467 797.867S362.667 806.4 354.133 806.4S337.067 806.4 332.8 797.867S324.267 785.067 324.267 776.533S328.533 759.467 332.8 755.2S345.6 746.667 354.133 746.667z" />
        <glyph
          glyph-name="www-ic_library_bookse1ca-f"
          unicode="&#xe1ca;"
          horiz-adv-x="1024" d=" M170.667 768H85.333V170.667C85.333 123.733 123.733 85.333 170.667 85.333H768V170.667H170.667V768zM853.333 938.667H341.333C294.4 938.667 256 900.267 256 853.333V341.333C256 294.4 294.4 256 341.333 256H853.333C900.267 256 938.667 294.4 938.667 341.333V853.333C938.667 900.267 900.267 938.667 853.333 938.667zM810.667 554.667H384V640H810.667V554.667zM640 384H384V469.333H640V384zM810.667 725.333H384V810.667H810.667V725.333z" />
        <glyph
          glyph-name="www-ic_networke1ce-f"
          unicode="&#xe1ce;"
          horiz-adv-x="1024" d=" M217.6 627.2C238.933 622.933 260.267 610.133 273.067 588.8S294.4 546.133 294.4 524.8S285.867 477.867 273.067 460.8S243.2 426.667 217.6 418.133V119.467C217.6 110.933 213.333 106.667 209.067 102.4C204.8 98.133 196.267 93.867 192 93.867C183.467 93.867 179.2 98.133 174.933 102.4C170.667 106.667 166.4 115.2 166.4 119.467V418.133C145.067 422.4 123.733 435.2 110.933 456.533C93.867 473.6 89.6 499.2 89.6 520.533S98.133 567.467 110.933 584.533C128 601.6 145.067 614.4 166.4 622.933V921.6C166.4 930.133 170.667 934.4 174.933 938.667C179.2 942.933 187.733 947.2 192 947.2C200.533 947.2 204.8 942.933 209.067 938.667C213.333 934.4 217.6 925.867 217.6 921.6V627.2zM192 469.333C209.067 469.333 217.6 473.6 230.4 486.4C238.933 494.933 247.467 507.733 247.467 524.8S243.2 550.4 230.4 563.2C221.867 571.733 209.067 580.267 192 580.267S166.4 576 153.6 563.2C145.067 554.667 136.533 541.867 136.533 524.8S140.8 499.2 153.6 486.4C166.4 473.6 174.933 469.333 192 469.333zM537.6 465.067C558.933 460.8 580.267 448 593.067 426.667S614.4 384 614.4 362.667S610.133 315.733 597.333 298.667S563.2 268.8 541.867 260.267V123.733C541.867 115.2 537.6 110.933 533.333 106.667C529.067 102.4 520.533 98.133 516.267 98.133C507.733 98.133 503.467 102.4 499.2 106.667C494.933 110.933 490.667 119.467 490.667 123.733V260.267C469.333 264.533 448 277.333 435.2 298.667C418.133 315.733 413.867 341.333 413.867 362.667S413.867 409.6 426.667 426.667C443.733 443.733 460.8 456.533 482.133 465.067V921.6C482.133 930.133 486.4 934.4 490.667 938.667C494.933 942.933 503.467 947.2 507.733 947.2C516.267 947.2 520.533 942.933 524.8 938.667C529.067 934.4 533.333 925.867 533.333 921.6V465.067zM512 307.2C529.067 307.2 537.6 311.467 550.4 324.267C558.933 332.8 567.467 345.6 567.467 362.667S563.2 388.267 550.4 401.067C541.867 409.6 529.067 418.133 512 418.133S486.4 413.867 473.6 401.067C465.067 392.533 456.533 379.733 456.533 362.667S460.8 337.067 473.6 324.267C486.4 315.733 494.933 307.2 512 307.2zM857.6 785.067C878.933 780.8 900.267 768 913.067 746.667S938.667 708.267 938.667 682.667S930.133 635.733 917.333 618.667S883.2 588.8 861.867 580.267V123.733C861.867 115.2 857.6 110.933 853.333 106.667C849.067 102.4 840.533 98.133 836.267 98.133C827.733 98.133 823.467 102.4 819.2 106.667C814.933 110.933 810.667 119.467 810.667 123.733V580.267C789.333 584.533 768 597.333 755.2 618.667C733.867 635.733 725.333 657.067 725.333 682.667S733.867 729.6 746.667 746.667C763.733 763.733 780.8 776.533 802.133 785.067V921.6C802.133 930.133 806.4 934.4 810.667 938.667C814.933 942.933 823.467 947.2 827.733 947.2C836.267 947.2 840.533 942.933 844.8 938.667C849.067 934.4 853.333 925.867 853.333 921.6V785.067zM832 631.467C849.067 631.467 857.6 635.733 870.4 648.533C878.933 657.067 887.467 669.867 887.467 686.933S883.2 712.533 870.4 725.333C861.867 733.867 849.067 742.4 832 742.4S806.4 738.133 793.6 725.333C785.067 716.8 776.533 704 776.533 686.933S780.8 661.333 793.6 648.533C806.4 635.733 814.933 631.467 832 631.467z" />
        <glyph
          glyph-name="www-ic_overviewe206-f"
          unicode="&#xe206;"
          horiz-adv-x="1024" d=" M931.84 583.68L558.08 942.08C542.72 952.32 527.36 962.56 512 962.56C491.52 962.56 476.16 957.44 465.92 942.08L92.16 583.68C87.04 573.44 81.92 568.32 81.92 558.08C81.92 547.84 81.92 537.6 92.16 532.48C97.28 522.24 102.4 517.12 112.64 517.12S133.12 517.12 138.24 527.36L512 885.76L885.76 527.36C890.88 522.24 901.12 517.12 911.36 517.12S931.84 522.24 936.96 527.36C942.08 532.48 947.2 542.72 947.2 552.96C942.08 568.32 936.96 573.44 931.84 583.68zM834.56 450.56C824.32 450.56 814.08 445.44 808.96 440.32S798.72 424.96 798.72 414.72V138.24H655.36V378.88C655.36 399.36 650.24 414.72 634.88 430.08S604.16 450.56 583.68 450.56H440.32C419.84 450.56 404.48 445.44 389.12 430.08S368.64 399.36 368.64 378.88V138.24H225.28V414.72C225.28 424.96 220.16 435.2 215.04 440.32S199.68 450.56 189.44 450.56S168.96 445.44 163.84 440.32S153.6 424.96 153.6 414.72V138.24C153.6 117.76 158.72 102.4 174.08 87.04S204.8 66.56 225.28 66.56H793.6C814.08 66.56 829.44 71.68 844.8 87.04S865.28 117.76 865.28 138.24V414.72C865.28 424.96 860.16 435.2 855.04 440.32S844.8 450.56 834.56 450.56zM583.68 138.24H440.32V378.88H578.56V138.24z" />
        <glyph
          glyph-name="www-ic_saftetye20c-f"
          unicode="&#xe20c;"
          horiz-adv-x="1024" d=" M827.733 597.333C806.4 618.667 780.8 627.2 750.933 627.2H725.333V729.6C725.333 759.467 721.067 789.333 708.267 814.933C699.733 840.533 682.667 866.133 665.6 883.2C648.533 904.533 622.933 917.333 597.333 930.133C571.733 942.933 541.867 947.2 512 947.2C482.133 947.2 452.267 942.933 426.667 930.133C396.8 921.6 375.467 904.533 358.4 887.467C341.333 866.133 324.267 844.8 315.733 819.2C302.933 789.333 298.667 759.467 298.667 729.6V627.2H273.067C243.2 627.2 217.6 618.667 196.267 597.333S166.4 550.4 166.4 520.533V200.533C166.4 170.667 174.933 145.067 196.267 123.733S243.2 93.867 273.067 93.867H750.933C780.8 93.867 806.4 102.4 827.733 123.733S857.6 170.667 857.6 200.533V520.533C857.6 550.4 849.067 576 827.733 597.333zM349.867 729.6C349.867 776.533 362.667 814.933 392.533 844.8C422.4 878.933 460.8 896 512 896C558.933 896 597.333 878.933 627.2 849.067C657.067 819.2 669.867 776.533 669.867 733.867V631.467H349.867V729.6zM806.4 204.8C806.4 192 802.133 179.2 789.333 166.4C780.8 157.867 768 149.333 750.933 149.333H273.067C260.267 149.333 247.467 153.6 234.667 166.4C226.133 174.933 217.6 187.733 217.6 204.8V524.8C217.6 537.6 221.867 550.4 234.667 563.2C243.2 571.733 256 580.267 273.067 580.267H750.933C763.733 580.267 776.533 576 789.333 563.2C797.867 554.667 806.4 541.867 806.4 524.8V204.8zM512 469.333C494.933 469.333 486.4 465.067 473.6 452.267C465.067 443.733 456.533 430.933 456.533 413.867C456.533 405.333 460.8 396.8 465.067 388.267S477.867 375.467 482.133 371.2V281.6C482.133 273.067 486.4 268.8 490.667 264.533C494.933 260.267 503.467 256 507.733 256C516.267 256 520.533 260.267 524.8 264.533C529.067 268.8 533.333 277.333 533.333 281.6V371.2C541.867 375.467 546.133 384 550.4 388.267S558.933 405.333 558.933 413.867C558.933 430.933 554.667 439.467 541.867 452.267C537.6 465.067 529.067 469.333 512 469.333z" />
        <glyph
          glyph-name="机票众包-baipingxitongtishigengduoe228-o"
          unicode="&#xe228;"
          horiz-adv-x="1024" d=" M511.2 928C281.8 928 96 742.2 96 512.8C96 283.6 281.8 97.6 511.2 97.6C740.4 97.6 926.4 283.4 926.4 512.8C926.2 742.2 740.4 928 511.2 928L511.2 928L511.2 928zM458.6 788.2C458.6 795.8 464.8 802 472.4 802H548.6C556.2 802 562.4 795.8 562.4 788.2V712C562.4 704.4 556.2 698.2 548.6 698.2H472.4C464.8 698.2 458.6 704.4 458.6 712L458.6 788.2L458.6 788.2L458.6 788.2L458.6 788.2zM617.4 325.2C617.4 319 612.6 314 606.8 314L442 314C436.2 314 431.4 319 431.4 325.2V350.4C431.4 357.2 436.2 362.6 442 362.6L477.8 360.6V544.2H440.6C435.4 544.2 431.2 549.6 431.2 556.4V582C431.2 588.2 436 593.2 441.8 593.2L558.6 593.2C565.4 593.2 570.8 588.2 570.8 582V360.6L606.6 362.6C612.4 362.6 617.2 357.2 617.2 350.4L617.4 325.2L617.4 325.2L617.4 325.2L617.4 325.2z" />
        <glyph
          glyph-name="www-icon_gongdane255-f"
          unicode="&#xe255;"
          horiz-adv-x="1024" d=" M917.333 759.467C900.267 776.533 883.2 780.8 861.867 780.8H166.4C145.067 780.8 123.733 772.267 110.933 759.467C93.867 742.4 85.333 725.333 85.333 699.733V298.667C85.333 277.333 93.867 256 106.667 243.2C123.733 226.133 140.8 221.867 162.133 221.867H853.333C874.667 221.867 896 230.4 908.8 243.2C925.867 260.267 930.133 277.333 930.133 298.667V699.733C938.667 725.333 930.133 742.4 917.333 759.467zM887.467 302.933C887.467 294.4 883.2 290.133 878.933 285.867C874.667 281.6 866.133 277.333 861.867 277.333H166.4C157.867 277.333 153.6 281.6 149.333 285.867C145.067 290.133 140.8 298.667 140.8 302.933V541.867H887.467V302.933zM887.467 648.533H136.533V699.733C136.533 708.267 140.8 712.533 145.067 716.8C153.6 725.333 157.867 729.6 166.4 729.6H857.6C866.133 729.6 870.4 725.333 874.667 721.067C878.933 716.8 883.2 708.267 883.2 704V648.533z" />
        <glyph
          glyph-name="www-icon_xiaofeie256-f"
          unicode="&#xe256;"
          horiz-adv-x="1024" d=" M529.067 558.933C567.467 550.4 601.6 537.6 627.2 524.8C661.333 507.733 686.933 490.667 704 469.333C725.333 443.733 733.867 409.6 733.867 371.2C733.867 328.533 721.067 294.4 691.2 268.8C665.6 243.2 627.2 226.133 584.533 217.6V123.733H456.533V217.6C413.867 226.133 375.467 243.2 349.867 273.067C311.467 298.667 294.4 337.067 294.4 384H388.267C388.267 358.4 401.067 332.8 418.133 320C439.467 302.933 473.6 294.4 516.267 294.4C558.933 294.4 588.8 302.933 610.133 320C627.2 332.8 631.467 349.867 631.467 371.2C631.467 396.8 622.933 413.867 605.867 430.933C584.533 452.267 550.4 465.067 499.2 477.867C435.2 494.933 384 512 354.133 541.867C315.733 571.733 298.667 610.133 298.667 657.067C298.667 695.467 311.467 729.6 341.333 759.467C366.933 785.067 405.333 802.133 448 810.667V900.267H576V806.4C618.667 797.867 652.8 776.533 678.4 742.4C699.733 712.533 712.533 678.4 716.8 640H622.933C622.933 699.733 584.533 729.6 512 729.6C477.867 729.6 448 721.067 426.667 708.267C409.6 695.467 401.067 678.4 401.067 652.8C401.067 631.467 409.6 614.4 430.933 601.6C448 584.533 482.133 571.733 529.067 558.933z" />
        <glyph
          glyph-name="travel-lvhangxuzhixine2a4-o"
          unicode="&#xe2a4;"
          horiz-adv-x="1024" d=" M634.19 196.668V259.316H389.616V192.264H390.06C392.376 155.736 422.438 126.734 459.55 126.734H564.45C601.562 126.734 631.624 155.736 633.94 192.264H634.19V194.742C634.208 195.398 634.384 196.008 634.384 196.668H634.19z M512 896C348.11 896 214.784 762.672 214.784 598.784C214.784 481.156 283.022 376.17 389.618 328.056V284.086H634.384V328.056C740.98 376.17 809.218 481.156 809.218 598.784C809.216 762.672 675.89 896 512 896zM664.228 586.424L594.294 516.49C590.884 513.08 586.408 511.366 581.932 511.366S572.98 513.08 569.572 516.49L512 574.062L454.428 516.49C447.592 509.654 436.542 509.654 429.706 516.49L359.772 586.424C352.936 593.26 352.936 604.308 359.772 611.146C366.608 617.982 377.656 617.982 384.494 611.146L442.066 553.572L499.64 611.144C506.476 617.98 517.524 617.98 524.36 611.144L581.934 553.572L639.508 611.144C646.344 617.98 657.392 617.98 664.23 611.144C671.064 604.308 671.064 593.26 664.228 586.424z" />
        <glyph
          glyph-name="travel-dingzhiyoue2c4-o"
          unicode="&#xe2c4;"
          horiz-adv-x="1024" d=" M786.94 808.442C772.902 822.48 755.492 829.782 734.716 830.342H688.896V866.442C688.896 882.768 675.662 896 659.332 896H654.644C638.318 896 625.09 882.766 625.09 866.442V830.344H398.822V866.442C398.822 882.768 385.588 896 369.268 896H364.576C348.25 896 335.022 882.766 335.022 866.442V830.344H289.966C269.188 829.782 251.78 822.482 237.742 808.444C223.702 794.406 216.402 776.996 215.842 756.22V203.654C216.404 182.876 223.704 165.468 237.742 151.43C251.78 137.392 269.188 130.092 289.966 129.53H734.714C755.492 130.092 772.9 137.392 786.938 151.43C800.976 165.47 808.276 182.878 808.838 203.654V756.218C808.278 776.996 800.978 794.404 786.94 808.442zM653.152 677.372C668.746 677.372 681.406 664.896 681.406 649.118C681.406 633.524 668.562 620.864 653.152 620.864H371.53C355.936 620.864 343.276 633.34 343.276 649.118C343.276 664.712 356.118 677.372 371.53 677.372H653.152zM343.276 495.088C343.276 510.682 356.118 523.342 371.53 523.342H489.496C505.09 523.342 517.75 510.866 517.75 495.088C517.75 479.494 504.906 466.834 489.496 466.834H371.53C355.934 466.834 343.276 479.31 343.276 495.088zM555.24 263.708C550.322 257.916 546.23 253.094 542.878 248.884C541.052 246.634 539.212 244.398 537.358 242.172C535.554 240.5 533.592 238.746 531.458 236.802C529.262 234.928 527.14 233.328 524.89 232.004C522.68 230.64 519.26 228.958 514.634 226.87C509.914 224.772 468.85 213.132 466.564 212.642L472.648 261.912C473.488 266.342 474.582 269.16 475.152 270.812C477.052 275.868 479.84 280.546 483.38 284.626L490.198 292.666L503.42 308.156C508.726 314.31 514.55 321.208 520.854 328.802C527.178 336.39 574.25 391.422 580.618 398.862C595.742 416.544 623.06 448.17 642.114 470.05L693.94 425.608L555.24 263.708zM726.106 462.466C724.478 460.576 722.896 458.646 721.358 456.68C720.202 455.08 718.966 453.538 717.654 452.062C716.534 450.684 715.276 449.424 713.9 448.3L661.506 492.69C663.7 494.8 666.06 497.342 668.7 500.184C670.88 502.528 673.108 504.826 675.388 507.074C679.588 511.606 684.452 513.8 689.838 513.586C695.26 513.434 699.704 512.578 703.306 510.91C707.276 509.276 711.586 506.298 716.388 501.838C721.188 497.414 724.94 492.622 727.658 487.42C728.996 484.476 730.076 480.662 730.84 476.13C731.558 471.61 730.008 467.018 726.106 462.466z" />
        <glyph
          glyph-name="ops-anquane307-o"
          unicode="&#xe307;"
          horiz-adv-x="1024" d=" M804.8 875C790.8 889 774.4 896 755.4 896H268.6C249.6 896 233.2 889 219.2 875C205.2 861 198.2 844.6 198.2 825.6V374.6C198.2 362.8 201 352.2 206.6 342.4C212.2 332.6 219.6 324.4 229.2 317.8L512 128L794.8 318C804.2 324.6 811.8 333 817.4 342.6C823 352.4 825.8 363 825.8 374.8V825.8C825.8 844.6 818.8 861.2 804.8 875zM441.8 373.2L268.6 546.4L318 595.8L441.8 471.2L706 736.2L755.4 686.8L441.8 373.2z" />
        <glyph
          glyph-name="ops-cunchue308-o"
          unicode="&#xe308;"
          horiz-adv-x="1024" d=" M854 470H170C158.4 470 148.4 465.8 140.4 457.2S128 438.2 128 426V170C128 158.4 132 148.4 140.2 140.4S158.2 128 169.8 128H853.8C865.4 128 875.4 132.2 883.4 140.4C891.6 148.6 895.6 158.4 895.6 170V426C895.6 438.2 891.6 448.6 883.4 457.2C875.6 465.8 865.6 470 854 470zM358.4 238.6C341.4 222.2 321.2 214 298 214C274.8 214 255 222.2 238.6 238.6C222.2 255 214 274.8 214 298C214 321.2 222.2 341.4 238.6 358.4C255 375.4 274.8 384 298 384C321.2 384 341.4 375.4 358.4 358.4C375.4 341.4 384 321.2 384 298C384 274.8 375.4 255 358.4 238.6z M883.8 883.8C875.6 892 865.8 896 854.2 896H170C158.4 896 148.4 892 140.4 883.8C132 875.6 128 865.6 128 854V598C128 586.4 132 576.2 140.2 567.2C148.4 558.4 158.2 553.8 169.8 553.8H853.8C865.4 553.8 875.4 558.2 883.4 567.2C891.6 576 895.6 586.4 895.6 598V854C896 865.6 892 875.6 883.8 883.8zM358.4 665.6C341.4 648.6 321.2 640 298 640C274.8 640 255 648.6 238.6 665.6C222.2 682.6 214 702.8 214 726C214 749.2 222.2 769 238.6 785.4C255 801.8 274.8 810 298 810C321.2 810 341.4 801.8 358.4 785.4C375.4 769 384 749.2 384 726C384 702.8 375.4 682.6 358.4 665.6z" />
        <glyph
          glyph-name="ops-jisuane309-o"
          unicode="&#xe309;"
          horiz-adv-x="1024" d=" M714.4 579.4C716 586.2 715.2 592.8 712 599.2C708.2 605.2 703 609 696.2 610.8C689.4 612.6 682.8 612 676.4 608.8L536 527.4C532.2 529.6 528.4 531.2 524.4 532.6C520.4 534 516 534.6 511 534.6C497 534.6 485 529.4 474.6 519.2C464.4 509 459.2 496.8 459.2 482.8C459.2 468.8 464.4 456.8 474.6 446.4C484.8 436.2 497 431 511 431C525 431 537 436.2 547.4 446.4C557.6 456.6 562.8 468.8 562.8 482.8L702.4 563.4C708.8 567.4 712.8 572.6 714.4 579.4z M892 643.4C870.4 693.4 841 737.2 803.6 774.4C766.2 811.8 722.6 841.4 672.6 863.2C622.6 885.2 569 896 512 896C455 896 401.4 885.2 351.4 863.4S257.6 812 220.4 774.6C183 737.2 153.6 693.6 132 643.6C110.4 593.6 99.8 540 99.8 483C99.8 447.6 104.2 413 112.8 379.4C121.4 345.8 134 314 150.8 283.8C167.4 253.6 187.8 225.8 211.8 200.4C235.8 174.8 263 152.6 293.6 133.8C299.6 130 306 129 313 130.6C320 132.2 325.4 136 329.2 141.8C333 147.8 334 154.2 332.4 161.2C330.8 168.2 327 173.6 321.2 177.4C299.2 191.4 279.2 207.2 261 224.6C243 242 227 261 213 281.4L240.4 297.6C246.4 300.8 250.2 306 252 313C253.8 320 253 326.4 249.2 332.4C246 338.8 240.8 343 233.8 345C226.8 346.8 220.4 346 214.4 342.2L187 326.8C177.4 346.6 169.6 367.8 163.6 390.2C157.6 412.6 154 435.2 152.4 458.4H180.6C188.2 458.4 194.4 461 199.2 466C204 471.2 206.4 477.2 206.4 484.2S204 497.2 199.2 502.4C194.4 507.6 188.2 510 180.6 510H152.2C153.8 533.6 157.8 556.6 163.8 579C170 601.4 178.2 622.6 188.4 643.2L214.2 627.8C215.8 626.8 217.8 626 220.2 625.4C222.6 624.8 225 624.6 227 624.6C231.4 624.6 235.4 625.6 239.6 627.8C243.6 630 246.8 633.2 248.8 637.4C252.6 643.4 253.6 649.8 251.6 656.8C249.8 663.8 245.8 669 240 672.2L214.2 687.6C227.2 706.4 241.6 724 257.8 740C274 756.2 291.6 770.6 311 783.6L325.6 758.6C327.8 754.2 330.8 751 334.8 749C338.8 746.8 343.2 745.8 348.2 745.8C350.4 745.8 352.6 746 354.6 746.6C356.8 747.2 359 748 361 749C367 752.8 370.8 758 372.6 764.8C374.4 771.6 373.6 778.2 369.8 784.6L355.2 809.6C375 819.2 396 827 417.8 832.6C439.6 838.2 462 842.2 485.2 844.2V812C485.2 804.4 487.8 798.2 492.8 793.4C498 788.6 504 786.2 511 786.2C518.6 786.2 524.8 788.6 529.6 793.4C534.4 798.2 536.8 804.4 536.8 812V843.6C560.4 842 583.4 838 605.8 832C628.2 825.8 649.4 817.8 670 808.2L655.4 784C652.2 777.6 651.4 771 653.4 764.2C655.2 757.4 659.2 752.2 665 748.4C667.2 747.4 669.4 746.6 671.4 746C673.6 745.4 675.8 745.2 677.8 745.2C682.2 745.2 686.2 746.2 690.4 748.4C694.4 750.6 697.8 753.8 700.4 758L714.2 782.2C733 769.2 750.6 754.8 766.6 738.6C782.8 722.4 797.2 705 810.2 686.2L786 671.6C779.6 668.4 775.6 663.2 773.8 656.2C772.2 649.2 773 642.8 776.2 636.8C778.8 632.4 782.2 629.2 786.2 627.2C790.2 625 794.4 624 798.8 624C801 624 803.2 624.2 805.2 624.8C807.4 625.4 809.6 626.2 811.6 627.2L835.8 641C845.4 621.2 853.4 600 859.6 577.6C865.8 555.2 869.6 532.2 871.2 508.6H843C836 508.6 830 506 824.8 501C819.6 495.8 817.2 489.8 817.2 482.8C817.2 475.8 819.8 469.8 824.8 464.6C830 459.4 836 457 843 457H871.2C869.6 433.8 866 411.4 860.4 389.6C854.8 367.8 847 347 837.4 327L811.6 341.6C805.2 345.4 798.6 346.4 791.8 344.4C785 342.6 779.8 338.4 776 331.8C772.8 325.8 772 319.4 773.6 312.4S779.2 300.2 785.8 297L811.6 281.6C797 260.6 780.6 241.2 762 223.2C743.4 205.2 722.8 189.2 700.2 175.2C694.2 171.4 690.6 166.2 689 159.4C687.4 152.6 688.4 146 692.2 139.6C694.4 135.8 697.4 132.8 701.4 130.8C705.4 128.6 709.6 127.6 714 127.6C716.2 127.6 718.4 127.8 720.8 128.4C723.2 129 725.6 130 727.6 131.6C758.2 150.4 785.6 172.6 809.8 198.2C834 223.8 854.6 251.6 871.6 281.6C888.6 311.8 901.4 343.8 910.4 377.6C919.2 411.4 923.8 446.8 923.8 483.2C924.2 540.2 913.4 593.4 892 643.4z" />
        <glyph
          glyph-name="ops-shujukue30a-o"
          unicode="&#xe30a;"
          horiz-adv-x="1024" d=" M841.2 786.2V731.4C841.2 671 693.8 621.6 512 621.6S182.8 671 182.8 731.4V786.2C182.8 846.8 330.2 896 512 896S841.2 846.8 841.2 786.2zM841.2 639.8V567C841.2 506.6 693.8 457.2 512 457.2S182.8 506.4 182.8 566.8V639.6C253.6 589.8 383 566.8 512 566.8S770.4 590 841.2 639.8zM841.2 475.2V402.4C841.2 342 693.8 292.6 512 292.6S182.8 341.8 182.8 402.2V475C253.6 425.2 383 402.2 512 402.2S770.4 425.4 841.2 475.2zM841.2 310.6V237.8C841.2 177.4 693.8 128 512 128S182.8 177.2 182.8 237.8V310.6C253.6 260.8 383 237.8 512 237.8S770.4 260.8 841.2 310.6z" />
        <glyph
          glyph-name="ops-zhongjianjiane30b-o"
          unicode="&#xe30b;"
          horiz-adv-x="1024" d=" M873.8 797.2C859 812.6 841.2 820.2 820.2 820.2H203.6C182.6 820.2 164.8 812.6 150 797.2C135.2 781.8 127.8 763.6 127.8 742.8V281.2C127.8 260.2 135.2 242.2 150 226.8C164.8 211.4 182.6 203.8 203.6 203.8H820.2C841.2 203.8 859 211.4 873.8 226.8C888.6 242.2 896 260.4 896 281.2V742.8C896 763.6 888.6 781.8 873.8 797.2zM627.4 281.2H203.6V434.4H627.4V281.2zM627.4 474.2H203.6V627.4H627.4V474.2zM820.4 281.2H665.4V627.4H820.4V281.2z" />
        <glyph
          glyph-name="travel-gonglvee3a5-o"
          unicode="&#xe3a5;"
          horiz-adv-x="1024" d=" M845.6 833.6C845.6 864 820.8 888 790.4 888H720.8C718.4 888 716 886.4 716 883.2C716 851.2 716 638.4 716 592C716 583.2 711.2 576 705.6 573.6C700 571.2 582.4 525.6 576 524C572 523.2 560 522.4 560 536L560 884C560 886.4 557.6 888.8 555.2 888.8H259.2C228.8 888.8 204 864 204 833.6V751.2C204 748.8 206.4 746.4 208.8 746.4H252C278.4 746.4 312.8 735.2 312.8 688.8C312.8 639.2 284 627.2 254.4 627.2H209.6C207.2 627.2 204.8 624.8 204.8 622.4V405.6C204.8 403.2 207.2 400.8 209.6 400.8H252.8C279.2 400.8 312.8 388.8 312.8 340.8C312.8 293.6 284 280.8 254.4 280.8H209.6C207.2 280.8 204.8 278.4 204.8 276V193.6C204.8 163.2 229.6 138.4 260 138.4H792C830.4 138.4 847.2 163.2 847.2 194.4L845.6 833.6z M288.8 340C288.8 361.6 271.2 379.2 249.6 379.2H184C162.4 379.2 144.8 361.6 144.8 340S162.4 300.8 184 300.8H249.6C271.2 300.8 288.8 318.4 288.8 340z M184 646.4H249.6C271.2 646.4 288.8 664 288.8 685.6S271.2 724.8 249.6 724.8H184C162.4 724.8 144.8 707.2 144.8 685.6S162.4 646.4 184 646.4z" />
    </font>
</defs>
</svg>
